<mxfile host="app.diagrams.net" modified="2023-11-20T12:12:19.972Z" agent="Mozilla/5.0 (Windows NT 10.0; Win64; x64) AppleWebKit/537.36 (KHTML, like Gecko) Chrome/119.0.0.0 Safari/537.36" etag="enupE9wMp6wmQ2O8EiT8" version="22.1.3" type="device">
  <diagram id="C5RBs43oDa-KdzZeNtuy" name="Page-1">
    <mxGraphModel dx="2577" dy="2126" grid="1" gridSize="10" guides="1" tooltips="1" connect="1" arrows="1" fold="1" page="1" pageScale="1" pageWidth="827" pageHeight="1169" math="0" shadow="0">
      <root>
        <mxCell id="WIyWlLk6GJQsqaUBKTNV-0" />
        <mxCell id="WIyWlLk6GJQsqaUBKTNV-1" parent="WIyWlLk6GJQsqaUBKTNV-0" />
        <mxCell id="zkfFHV4jXpPFQw0GAbJ--0" value="Incident" style="swimlane;fontStyle=2;align=center;verticalAlign=top;childLayout=stackLayout;horizontal=1;startSize=26;horizontalStack=0;resizeParent=1;resizeLast=0;collapsible=1;marginBottom=0;rounded=0;shadow=0;strokeWidth=1;" parent="WIyWlLk6GJQsqaUBKTNV-1" vertex="1">
          <mxGeometry x="-271" y="60" width="160" height="510" as="geometry">
            <mxRectangle x="230" y="140" width="160" height="26" as="alternateBounds" />
          </mxGeometry>
        </mxCell>
        <mxCell id="zkfFHV4jXpPFQw0GAbJ--1" value="- IncidentId: int" style="text;align=left;verticalAlign=top;spacingLeft=4;spacingRight=4;overflow=hidden;rotatable=0;points=[[0,0.5],[1,0.5]];portConstraint=eastwest;" parent="zkfFHV4jXpPFQw0GAbJ--0" vertex="1">
          <mxGeometry y="26" width="160" height="26" as="geometry" />
        </mxCell>
        <mxCell id="zkfFHV4jXpPFQw0GAbJ--2" value="- Label: String" style="text;align=left;verticalAlign=top;spacingLeft=4;spacingRight=4;overflow=hidden;rotatable=0;points=[[0,0.5],[1,0.5]];portConstraint=eastwest;rounded=0;shadow=0;html=0;" parent="zkfFHV4jXpPFQw0GAbJ--0" vertex="1">
          <mxGeometry y="52" width="160" height="26" as="geometry" />
        </mxCell>
        <mxCell id="zkfFHV4jXpPFQw0GAbJ--3" value="- FlowID: String" style="text;align=left;verticalAlign=top;spacingLeft=4;spacingRight=4;overflow=hidden;rotatable=0;points=[[0,0.5],[1,0.5]];portConstraint=eastwest;rounded=0;shadow=0;html=0;" parent="zkfFHV4jXpPFQw0GAbJ--0" vertex="1">
          <mxGeometry y="78" width="160" height="26" as="geometry" />
        </mxCell>
        <mxCell id="zkfFHV4jXpPFQw0GAbJ--5" value="- SourceIP: String" style="text;align=left;verticalAlign=top;spacingLeft=4;spacingRight=4;overflow=hidden;rotatable=0;points=[[0,0.5],[1,0.5]];portConstraint=eastwest;" parent="zkfFHV4jXpPFQw0GAbJ--0" vertex="1">
          <mxGeometry y="104" width="160" height="26" as="geometry" />
        </mxCell>
        <mxCell id="5ml-Bbg17F_reLXBtUsv-0" value="- SourcePort: int" style="text;align=left;verticalAlign=top;spacingLeft=4;spacingRight=4;overflow=hidden;rotatable=0;points=[[0,0.5],[1,0.5]];portConstraint=eastwest;" parent="zkfFHV4jXpPFQw0GAbJ--0" vertex="1">
          <mxGeometry y="130" width="160" height="26" as="geometry" />
        </mxCell>
        <mxCell id="5ml-Bbg17F_reLXBtUsv-2" value="- DestinationIP: String" style="text;align=left;verticalAlign=top;spacingLeft=4;spacingRight=4;overflow=hidden;rotatable=0;points=[[0,0.5],[1,0.5]];portConstraint=eastwest;" parent="zkfFHV4jXpPFQw0GAbJ--0" vertex="1">
          <mxGeometry y="156" width="160" height="26" as="geometry" />
        </mxCell>
        <mxCell id="5ml-Bbg17F_reLXBtUsv-1" value="- DestinationPort: int" style="text;align=left;verticalAlign=top;spacingLeft=4;spacingRight=4;overflow=hidden;rotatable=0;points=[[0,0.5],[1,0.5]];portConstraint=eastwest;" parent="zkfFHV4jXpPFQw0GAbJ--0" vertex="1">
          <mxGeometry y="182" width="160" height="26" as="geometry" />
        </mxCell>
        <mxCell id="5ml-Bbg17F_reLXBtUsv-4" value="- protocol: int" style="text;align=left;verticalAlign=top;spacingLeft=4;spacingRight=4;overflow=hidden;rotatable=0;points=[[0,0.5],[1,0.5]];portConstraint=eastwest;" parent="zkfFHV4jXpPFQw0GAbJ--0" vertex="1">
          <mxGeometry y="208" width="160" height="26" as="geometry" />
        </mxCell>
        <mxCell id="5ml-Bbg17F_reLXBtUsv-3" value="- protocolIdentifier: String" style="text;align=left;verticalAlign=top;spacingLeft=4;spacingRight=4;overflow=hidden;rotatable=0;points=[[0,0.5],[1,0.5]];portConstraint=eastwest;" parent="zkfFHV4jXpPFQw0GAbJ--0" vertex="1">
          <mxGeometry y="234" width="160" height="26" as="geometry" />
        </mxCell>
        <mxCell id="zkfFHV4jXpPFQw0GAbJ--4" value="" style="line;html=1;strokeWidth=1;align=left;verticalAlign=middle;spacingTop=-1;spacingLeft=3;spacingRight=3;rotatable=0;labelPosition=right;points=[];portConstraint=eastwest;" parent="zkfFHV4jXpPFQw0GAbJ--0" vertex="1">
          <mxGeometry y="260" width="160" height="8" as="geometry" />
        </mxCell>
        <mxCell id="5ml-Bbg17F_reLXBtUsv-14" value="+ &lt;&lt;get/set&gt;&gt;IncidentId" style="text;align=left;verticalAlign=top;spacingLeft=4;spacingRight=4;overflow=hidden;rotatable=0;points=[[0,0.5],[1,0.5]];portConstraint=eastwest;" parent="zkfFHV4jXpPFQw0GAbJ--0" vertex="1">
          <mxGeometry y="268" width="160" height="26" as="geometry" />
        </mxCell>
        <mxCell id="5ml-Bbg17F_reLXBtUsv-13" value="+ &lt;&lt;get/set&gt;&gt; getLabel" style="text;align=left;verticalAlign=top;spacingLeft=4;spacingRight=4;overflow=hidden;rotatable=0;points=[[0,0.5],[1,0.5]];portConstraint=eastwest;" parent="zkfFHV4jXpPFQw0GAbJ--0" vertex="1">
          <mxGeometry y="294" width="160" height="26" as="geometry" />
        </mxCell>
        <mxCell id="5ml-Bbg17F_reLXBtUsv-12" value="+ &lt;&lt;get/set&gt;&gt; getFlowID" style="text;align=left;verticalAlign=top;spacingLeft=4;spacingRight=4;overflow=hidden;rotatable=0;points=[[0,0.5],[1,0.5]];portConstraint=eastwest;" parent="zkfFHV4jXpPFQw0GAbJ--0" vertex="1">
          <mxGeometry y="320" width="160" height="26" as="geometry" />
        </mxCell>
        <mxCell id="5ml-Bbg17F_reLXBtUsv-11" value="+ &lt;&lt;get/set&gt;&gt; getSourceIP" style="text;align=left;verticalAlign=top;spacingLeft=4;spacingRight=4;overflow=hidden;rotatable=0;points=[[0,0.5],[1,0.5]];portConstraint=eastwest;" parent="zkfFHV4jXpPFQw0GAbJ--0" vertex="1">
          <mxGeometry y="346" width="160" height="26" as="geometry" />
        </mxCell>
        <mxCell id="5ml-Bbg17F_reLXBtUsv-10" value="+ &lt;&lt;get/set&gt;&gt; getSourcePort" style="text;align=left;verticalAlign=top;spacingLeft=4;spacingRight=4;overflow=hidden;rotatable=0;points=[[0,0.5],[1,0.5]];portConstraint=eastwest;" parent="zkfFHV4jXpPFQw0GAbJ--0" vertex="1">
          <mxGeometry y="372" width="160" height="26" as="geometry" />
        </mxCell>
        <mxCell id="5ml-Bbg17F_reLXBtUsv-9" value="+ &lt;&lt;get/set&gt;&gt; getDestinationIP" style="text;align=left;verticalAlign=top;spacingLeft=4;spacingRight=4;overflow=hidden;rotatable=0;points=[[0,0.5],[1,0.5]];portConstraint=eastwest;" parent="zkfFHV4jXpPFQw0GAbJ--0" vertex="1">
          <mxGeometry y="398" width="160" height="26" as="geometry" />
        </mxCell>
        <mxCell id="5ml-Bbg17F_reLXBtUsv-8" value="+ &lt;&lt;get/set&gt;&gt; getDestinationPort" style="text;align=left;verticalAlign=top;spacingLeft=4;spacingRight=4;overflow=hidden;rotatable=0;points=[[0,0.5],[1,0.5]];portConstraint=eastwest;rounded=0;shadow=0;html=0;" parent="zkfFHV4jXpPFQw0GAbJ--0" vertex="1">
          <mxGeometry y="424" width="160" height="26" as="geometry" />
        </mxCell>
        <mxCell id="5ml-Bbg17F_reLXBtUsv-7" value="+ &lt;&lt;get/set&gt;&gt; getProtocol" style="text;align=left;verticalAlign=top;spacingLeft=4;spacingRight=4;overflow=hidden;rotatable=0;points=[[0,0.5],[1,0.5]];portConstraint=eastwest;rounded=0;shadow=0;html=0;" parent="zkfFHV4jXpPFQw0GAbJ--0" vertex="1">
          <mxGeometry y="450" width="160" height="26" as="geometry" />
        </mxCell>
        <mxCell id="5ml-Bbg17F_reLXBtUsv-6" value="+ &lt;&lt;get/set&gt;&gt; getProtocolIdentifier" style="text;align=left;verticalAlign=top;spacingLeft=4;spacingRight=4;overflow=hidden;rotatable=0;points=[[0,0.5],[1,0.5]];portConstraint=eastwest;" parent="zkfFHV4jXpPFQw0GAbJ--0" vertex="1">
          <mxGeometry y="476" width="160" height="26" as="geometry" />
        </mxCell>
        <mxCell id="zkfFHV4jXpPFQw0GAbJ--6" value="Adware" style="swimlane;fontStyle=0;align=center;verticalAlign=top;childLayout=stackLayout;horizontal=1;startSize=26;horizontalStack=0;resizeParent=1;resizeLast=0;collapsible=1;marginBottom=0;rounded=0;shadow=0;strokeWidth=1;" parent="WIyWlLk6GJQsqaUBKTNV-1" vertex="1">
          <mxGeometry x="-570" y="722.4300000000001" width="160" height="138" as="geometry">
            <mxRectangle x="130" y="380" width="160" height="26" as="alternateBounds" />
          </mxGeometry>
        </mxCell>
        <mxCell id="zkfFHV4jXpPFQw0GAbJ--7" value="- TotalFwdPackets: int" style="text;align=left;verticalAlign=top;spacingLeft=4;spacingRight=4;overflow=hidden;rotatable=0;points=[[0,0.5],[1,0.5]];portConstraint=eastwest;" parent="zkfFHV4jXpPFQw0GAbJ--6" vertex="1">
          <mxGeometry y="26" width="160" height="26" as="geometry" />
        </mxCell>
        <mxCell id="zkfFHV4jXpPFQw0GAbJ--8" value="- FlowPacketspers: double" style="text;align=left;verticalAlign=top;spacingLeft=4;spacingRight=4;overflow=hidden;rotatable=0;points=[[0,0.5],[1,0.5]];portConstraint=eastwest;rounded=0;shadow=0;html=0;" parent="zkfFHV4jXpPFQw0GAbJ--6" vertex="1">
          <mxGeometry y="52" width="160" height="26" as="geometry" />
        </mxCell>
        <mxCell id="zkfFHV4jXpPFQw0GAbJ--9" value="" style="line;html=1;strokeWidth=1;align=left;verticalAlign=middle;spacingTop=-1;spacingLeft=3;spacingRight=3;rotatable=0;labelPosition=right;points=[];portConstraint=eastwest;" parent="zkfFHV4jXpPFQw0GAbJ--6" vertex="1">
          <mxGeometry y="78" width="160" height="8" as="geometry" />
        </mxCell>
        <mxCell id="zkfFHV4jXpPFQw0GAbJ--10" value="+ getTotalFwdPackets" style="text;align=left;verticalAlign=top;spacingLeft=4;spacingRight=4;overflow=hidden;rotatable=0;points=[[0,0.5],[1,0.5]];portConstraint=eastwest;fontStyle=0" parent="zkfFHV4jXpPFQw0GAbJ--6" vertex="1">
          <mxGeometry y="86" width="160" height="26" as="geometry" />
        </mxCell>
        <mxCell id="zkfFHV4jXpPFQw0GAbJ--11" value="+ getFlowPacketspers" style="text;align=left;verticalAlign=top;spacingLeft=4;spacingRight=4;overflow=hidden;rotatable=0;points=[[0,0.5],[1,0.5]];portConstraint=eastwest;" parent="zkfFHV4jXpPFQw0GAbJ--6" vertex="1">
          <mxGeometry y="112" width="160" height="26" as="geometry" />
        </mxCell>
        <mxCell id="zkfFHV4jXpPFQw0GAbJ--13" value="SMS" style="swimlane;fontStyle=0;align=center;verticalAlign=top;childLayout=stackLayout;horizontal=1;startSize=26;horizontalStack=0;resizeParent=1;resizeLast=0;collapsible=1;marginBottom=0;rounded=0;shadow=0;strokeWidth=1;" parent="WIyWlLk6GJQsqaUBKTNV-1" vertex="1">
          <mxGeometry x="-372" y="722.4300000000001" width="182" height="190" as="geometry">
            <mxRectangle x="340" y="380" width="170" height="26" as="alternateBounds" />
          </mxGeometry>
        </mxCell>
        <mxCell id="zkfFHV4jXpPFQw0GAbJ--14" value="- PacketLengthVariance: double" style="text;align=left;verticalAlign=top;spacingLeft=4;spacingRight=4;overflow=hidden;rotatable=0;points=[[0,0.5],[1,0.5]];portConstraint=eastwest;" parent="zkfFHV4jXpPFQw0GAbJ--13" vertex="1">
          <mxGeometry y="26" width="182" height="26" as="geometry" />
        </mxCell>
        <mxCell id="5ml-Bbg17F_reLXBtUsv-16" value="- AveragePacketSize: double" style="text;align=left;verticalAlign=top;spacingLeft=4;spacingRight=4;overflow=hidden;rotatable=0;points=[[0,0.5],[1,0.5]];portConstraint=eastwest;" parent="zkfFHV4jXpPFQw0GAbJ--13" vertex="1">
          <mxGeometry y="52" width="182" height="26" as="geometry" />
        </mxCell>
        <mxCell id="5ml-Bbg17F_reLXBtUsv-17" value="" style="line;html=1;strokeWidth=1;align=left;verticalAlign=middle;spacingTop=-1;spacingLeft=3;spacingRight=3;rotatable=0;labelPosition=right;points=[];portConstraint=eastwest;" parent="zkfFHV4jXpPFQw0GAbJ--13" vertex="1">
          <mxGeometry y="78" width="182" height="8" as="geometry" />
        </mxCell>
        <mxCell id="5ml-Bbg17F_reLXBtUsv-19" value="+ getPacketLengthVariance" style="text;align=left;verticalAlign=top;spacingLeft=4;spacingRight=4;overflow=hidden;rotatable=0;points=[[0,0.5],[1,0.5]];portConstraint=eastwest;" parent="zkfFHV4jXpPFQw0GAbJ--13" vertex="1">
          <mxGeometry y="86" width="182" height="26" as="geometry" />
        </mxCell>
        <mxCell id="5ml-Bbg17F_reLXBtUsv-18" value="+ getAveragePacketSize" style="text;align=left;verticalAlign=top;spacingLeft=4;spacingRight=4;overflow=hidden;rotatable=0;points=[[0,0.5],[1,0.5]];portConstraint=eastwest;" parent="zkfFHV4jXpPFQw0GAbJ--13" vertex="1">
          <mxGeometry y="112" width="182" height="26" as="geometry" />
        </mxCell>
        <mxCell id="zkfFHV4jXpPFQw0GAbJ--16" value="" style="endArrow=block;endSize=10;endFill=0;shadow=0;strokeWidth=1;rounded=0;edgeStyle=elbowEdgeStyle;elbow=vertical;" parent="WIyWlLk6GJQsqaUBKTNV-1" edge="1">
          <mxGeometry width="160" relative="1" as="geometry">
            <mxPoint x="-285" y="722.4300000000001" as="sourcePoint" />
            <mxPoint x="-197" y="570" as="targetPoint" />
            <Array as="points">
              <mxPoint x="-197" y="676.4300000000001" />
            </Array>
          </mxGeometry>
        </mxCell>
        <mxCell id="aVOMNLlDnLgEeCud0R0b-0" value="Scareware" style="swimlane;fontStyle=0;align=center;verticalAlign=top;childLayout=stackLayout;horizontal=1;startSize=26;horizontalStack=0;resizeParent=1;resizeLast=0;collapsible=1;marginBottom=0;rounded=0;shadow=0;strokeWidth=1;" parent="WIyWlLk6GJQsqaUBKTNV-1" vertex="1">
          <mxGeometry x="-180" y="722.4300000000001" width="160" height="90" as="geometry">
            <mxRectangle x="472" y="360" width="170" height="26" as="alternateBounds" />
          </mxGeometry>
        </mxCell>
        <mxCell id="aVOMNLlDnLgEeCud0R0b-1" value="- FlowDuration: long" style="text;align=left;verticalAlign=top;spacingLeft=4;spacingRight=4;overflow=hidden;rotatable=0;points=[[0,0.5],[1,0.5]];portConstraint=eastwest;" parent="aVOMNLlDnLgEeCud0R0b-0" vertex="1">
          <mxGeometry y="26" width="160" height="26" as="geometry" />
        </mxCell>
        <mxCell id="aVOMNLlDnLgEeCud0R0b-2" value="" style="line;html=1;strokeWidth=1;align=left;verticalAlign=middle;spacingTop=-1;spacingLeft=3;spacingRight=3;rotatable=0;labelPosition=right;points=[];portConstraint=eastwest;" parent="aVOMNLlDnLgEeCud0R0b-0" vertex="1">
          <mxGeometry y="52" width="160" height="8" as="geometry" />
        </mxCell>
        <mxCell id="5ml-Bbg17F_reLXBtUsv-20" value="+ getFlowDuration" style="text;align=left;verticalAlign=top;spacingLeft=4;spacingRight=4;overflow=hidden;rotatable=0;points=[[0,0.5],[1,0.5]];portConstraint=eastwest;" parent="aVOMNLlDnLgEeCud0R0b-0" vertex="1">
          <mxGeometry y="60" width="160" height="26" as="geometry" />
        </mxCell>
        <mxCell id="aVOMNLlDnLgEeCud0R0b-3" value="Benign" style="swimlane;fontStyle=0;align=center;verticalAlign=top;childLayout=stackLayout;horizontal=1;startSize=26;horizontalStack=0;resizeParent=1;resizeLast=0;collapsible=1;marginBottom=0;rounded=0;shadow=0;strokeWidth=1;" parent="WIyWlLk6GJQsqaUBKTNV-1" vertex="1">
          <mxGeometry x="-10" y="722.4300000000001" width="188" height="620" as="geometry">
            <mxRectangle x="340" y="380" width="170" height="26" as="alternateBounds" />
          </mxGeometry>
        </mxCell>
        <mxCell id="aVOMNLlDnLgEeCud0R0b-4" value="&lt;&lt;get&gt;&gt; - TotalBackwardPackets: int" style="text;align=left;verticalAlign=top;spacingLeft=4;spacingRight=4;overflow=hidden;rotatable=0;points=[[0,0.5],[1,0.5]];portConstraint=eastwest;" parent="aVOMNLlDnLgEeCud0R0b-3" vertex="1">
          <mxGeometry y="26" width="188" height="26" as="geometry" />
        </mxCell>
        <mxCell id="5ml-Bbg17F_reLXBtUsv-22" value="&lt;&lt;get&gt;&gt; - TotalLengthofFwdPackets: int" style="text;align=left;verticalAlign=top;spacingLeft=4;spacingRight=4;overflow=hidden;rotatable=0;points=[[0,0.5],[1,0.5]];portConstraint=eastwest;" parent="aVOMNLlDnLgEeCud0R0b-3" vertex="1">
          <mxGeometry y="52" width="188" height="28" as="geometry" />
        </mxCell>
        <mxCell id="5ml-Bbg17F_reLXBtUsv-21" value="&lt;&lt;get&gt;&gt; - TotalLengthofBwdPackets: int" style="text;align=left;verticalAlign=top;spacingLeft=4;spacingRight=4;overflow=hidden;rotatable=0;points=[[0,0.5],[1,0.5]];portConstraint=eastwest;" parent="aVOMNLlDnLgEeCud0R0b-3" vertex="1">
          <mxGeometry y="80" width="188" height="26" as="geometry" />
        </mxCell>
        <mxCell id="5ml-Bbg17F_reLXBtUsv-23" value="&lt;&lt;get&gt;&gt; - FwdPacketLengthMax: int" style="text;align=left;verticalAlign=top;spacingLeft=4;spacingRight=4;overflow=hidden;rotatable=0;points=[[0,0.5],[1,0.5]];portConstraint=eastwest;" parent="aVOMNLlDnLgEeCud0R0b-3" vertex="1">
          <mxGeometry y="106" width="188" height="26" as="geometry" />
        </mxCell>
        <mxCell id="5ml-Bbg17F_reLXBtUsv-30" value="&lt;&lt;get&gt;&gt; - FwdPacketLengthMin: int" style="text;align=left;verticalAlign=top;spacingLeft=4;spacingRight=4;overflow=hidden;rotatable=0;points=[[0,0.5],[1,0.5]];portConstraint=eastwest;" parent="aVOMNLlDnLgEeCud0R0b-3" vertex="1">
          <mxGeometry y="132" width="188" height="26" as="geometry" />
        </mxCell>
        <mxCell id="5ml-Bbg17F_reLXBtUsv-29" value="&lt;&lt;get&gt;&gt; - FwdPacketLengthMean: double" style="text;align=left;verticalAlign=top;spacingLeft=4;spacingRight=4;overflow=hidden;rotatable=0;points=[[0,0.5],[1,0.5]];portConstraint=eastwest;" parent="aVOMNLlDnLgEeCud0R0b-3" vertex="1">
          <mxGeometry y="158" width="188" height="26" as="geometry" />
        </mxCell>
        <mxCell id="5ml-Bbg17F_reLXBtUsv-28" value="&lt;&lt;get&gt;&gt; - FwdPacketLengthStd: double" style="text;align=left;verticalAlign=top;spacingLeft=4;spacingRight=4;overflow=hidden;rotatable=0;points=[[0,0.5],[1,0.5]];portConstraint=eastwest;" parent="aVOMNLlDnLgEeCud0R0b-3" vertex="1">
          <mxGeometry y="184" width="188" height="26" as="geometry" />
        </mxCell>
        <mxCell id="5ml-Bbg17F_reLXBtUsv-27" value="&lt;&lt;get&gt;&gt; - BwdPacketLengthMax: int" style="text;align=left;verticalAlign=top;spacingLeft=4;spacingRight=4;overflow=hidden;rotatable=0;points=[[0,0.5],[1,0.5]];portConstraint=eastwest;" parent="aVOMNLlDnLgEeCud0R0b-3" vertex="1">
          <mxGeometry y="210" width="188" height="26" as="geometry" />
        </mxCell>
        <mxCell id="5ml-Bbg17F_reLXBtUsv-26" value="&lt;&lt;get&gt;&gt; - BwdPacketLengthMin: int" style="text;align=left;verticalAlign=top;spacingLeft=4;spacingRight=4;overflow=hidden;rotatable=0;points=[[0,0.5],[1,0.5]];portConstraint=eastwest;" parent="aVOMNLlDnLgEeCud0R0b-3" vertex="1">
          <mxGeometry y="236" width="188" height="26" as="geometry" />
        </mxCell>
        <mxCell id="5ml-Bbg17F_reLXBtUsv-25" value="&lt;&lt;get&gt;&gt; - BwdPacketLengthMean: double" style="text;align=left;verticalAlign=top;spacingLeft=4;spacingRight=4;overflow=hidden;rotatable=0;points=[[0,0.5],[1,0.5]];portConstraint=eastwest;" parent="aVOMNLlDnLgEeCud0R0b-3" vertex="1">
          <mxGeometry y="262" width="188" height="26" as="geometry" />
        </mxCell>
        <mxCell id="5ml-Bbg17F_reLXBtUsv-38" value="&lt;&lt;get&gt;&gt; - BwdPacketLengthStd: double" style="text;align=left;verticalAlign=top;spacingLeft=4;spacingRight=4;overflow=hidden;rotatable=0;points=[[0,0.5],[1,0.5]];portConstraint=eastwest;" parent="aVOMNLlDnLgEeCud0R0b-3" vertex="1">
          <mxGeometry y="288" width="188" height="26" as="geometry" />
        </mxCell>
        <mxCell id="5ml-Bbg17F_reLXBtUsv-37" value="&lt;&lt;get&gt;&gt; - FlowBytespers: double" style="text;align=left;verticalAlign=top;spacingLeft=4;spacingRight=4;overflow=hidden;rotatable=0;points=[[0,0.5],[1,0.5]];portConstraint=eastwest;" parent="aVOMNLlDnLgEeCud0R0b-3" vertex="1">
          <mxGeometry y="314" width="188" height="26" as="geometry" />
        </mxCell>
        <mxCell id="5ml-Bbg17F_reLXBtUsv-36" value="&lt;&lt;get&gt;&gt; - BwdHeaderLength: long" style="text;align=left;verticalAlign=top;spacingLeft=4;spacingRight=4;overflow=hidden;rotatable=0;points=[[0,0.5],[1,0.5]];portConstraint=eastwest;" parent="aVOMNLlDnLgEeCud0R0b-3" vertex="1">
          <mxGeometry y="340" width="188" height="26" as="geometry" />
        </mxCell>
        <mxCell id="5ml-Bbg17F_reLXBtUsv-35" value="&lt;&lt;get&gt;&gt; - FwdPacketspers: double" style="text;align=left;verticalAlign=top;spacingLeft=4;spacingRight=4;overflow=hidden;rotatable=0;points=[[0,0.5],[1,0.5]];portConstraint=eastwest;" parent="aVOMNLlDnLgEeCud0R0b-3" vertex="1">
          <mxGeometry y="366" width="188" height="26" as="geometry" />
        </mxCell>
        <mxCell id="5ml-Bbg17F_reLXBtUsv-34" value="&lt;&lt;get&gt;&gt; - BwdPacketspers : double" style="text;align=left;verticalAlign=top;spacingLeft=4;spacingRight=4;overflow=hidden;rotatable=0;points=[[0,0.5],[1,0.5]];portConstraint=eastwest;" parent="aVOMNLlDnLgEeCud0R0b-3" vertex="1">
          <mxGeometry y="392" width="188" height="26" as="geometry" />
        </mxCell>
        <mxCell id="5ml-Bbg17F_reLXBtUsv-33" value="&lt;&lt;get&gt;&gt; - MinPacketLength: int" style="text;align=left;verticalAlign=top;spacingLeft=4;spacingRight=4;overflow=hidden;rotatable=0;points=[[0,0.5],[1,0.5]];portConstraint=eastwest;" parent="aVOMNLlDnLgEeCud0R0b-3" vertex="1">
          <mxGeometry y="418" width="188" height="26" as="geometry" />
        </mxCell>
        <mxCell id="5ml-Bbg17F_reLXBtUsv-32" value="&lt;&lt;get&gt;&gt; - MaxPacketLength: int" style="text;align=left;verticalAlign=top;spacingLeft=4;spacingRight=4;overflow=hidden;rotatable=0;points=[[0,0.5],[1,0.5]];portConstraint=eastwest;" parent="aVOMNLlDnLgEeCud0R0b-3" vertex="1">
          <mxGeometry y="444" width="188" height="26" as="geometry" />
        </mxCell>
        <mxCell id="5ml-Bbg17F_reLXBtUsv-31" value="&lt;&lt;get&gt;&gt; - PacketLengthMean: double" style="text;align=left;verticalAlign=top;spacingLeft=4;spacingRight=4;overflow=hidden;rotatable=0;points=[[0,0.5],[1,0.5]];portConstraint=eastwest;" parent="aVOMNLlDnLgEeCud0R0b-3" vertex="1">
          <mxGeometry y="470" width="188" height="26" as="geometry" />
        </mxCell>
        <mxCell id="5ml-Bbg17F_reLXBtUsv-24" value="&lt;&lt;get&gt;&gt; - PacketLengthStd: double" style="text;align=left;verticalAlign=top;spacingLeft=4;spacingRight=4;overflow=hidden;rotatable=0;points=[[0,0.5],[1,0.5]];portConstraint=eastwest;" parent="aVOMNLlDnLgEeCud0R0b-3" vertex="1">
          <mxGeometry y="496" width="188" height="26" as="geometry" />
        </mxCell>
        <mxCell id="5ml-Bbg17F_reLXBtUsv-40" value="&lt;&lt;get&gt;&gt; - Init_Win_bytes_forward: int" style="text;align=left;verticalAlign=top;spacingLeft=4;spacingRight=4;overflow=hidden;rotatable=0;points=[[0,0.5],[1,0.5]];portConstraint=eastwest;" parent="aVOMNLlDnLgEeCud0R0b-3" vertex="1">
          <mxGeometry y="522" width="188" height="28" as="geometry" />
        </mxCell>
        <mxCell id="5ml-Bbg17F_reLXBtUsv-39" value="&lt;&lt;get&gt;&gt; - Init_Win_bytes_backward: int" style="text;align=left;verticalAlign=top;spacingLeft=4;spacingRight=4;overflow=hidden;rotatable=0;points=[[0,0.5],[1,0.5]];portConstraint=eastwest;" parent="aVOMNLlDnLgEeCud0R0b-3" vertex="1">
          <mxGeometry y="550" width="188" height="28" as="geometry" />
        </mxCell>
        <mxCell id="5ml-Bbg17F_reLXBtUsv-41" value="&lt;&lt;get&gt;&gt; - min_seg_size_forward: int" style="text;align=left;verticalAlign=top;spacingLeft=4;spacingRight=4;overflow=hidden;rotatable=0;points=[[0,0.5],[1,0.5]];portConstraint=eastwest;" parent="aVOMNLlDnLgEeCud0R0b-3" vertex="1">
          <mxGeometry y="578" width="188" height="28" as="geometry" />
        </mxCell>
        <mxCell id="aVOMNLlDnLgEeCud0R0b-11" value="" style="endArrow=block;endSize=10;endFill=0;shadow=0;strokeWidth=1;rounded=0;edgeStyle=elbowEdgeStyle;elbow=vertical;exitX=0.534;exitY=0.005;exitDx=0;exitDy=0;exitPerimeter=0;" parent="WIyWlLk6GJQsqaUBKTNV-1" source="aVOMNLlDnLgEeCud0R0b-0" edge="1">
          <mxGeometry width="160" relative="1" as="geometry">
            <mxPoint x="-122.7600000000001" y="722.1000000000001" as="sourcePoint" />
            <mxPoint x="-196" y="570" as="targetPoint" />
            <Array as="points">
              <mxPoint x="-157" y="676.4300000000001" />
            </Array>
          </mxGeometry>
        </mxCell>
        <mxCell id="aVOMNLlDnLgEeCud0R0b-12" value="" style="endArrow=block;endSize=10;endFill=0;shadow=0;strokeWidth=1;rounded=0;edgeStyle=elbowEdgeStyle;elbow=vertical;exitX=0.5;exitY=0;exitDx=0;exitDy=0;" parent="WIyWlLk6GJQsqaUBKTNV-1" source="aVOMNLlDnLgEeCud0R0b-3" edge="1">
          <mxGeometry width="160" relative="1" as="geometry">
            <mxPoint x="42.440000000000055" y="723.5" as="sourcePoint" />
            <mxPoint x="-196" y="570" as="targetPoint" />
            <Array as="points">
              <mxPoint x="-77" y="676.4300000000001" />
              <mxPoint x="-71.55999999999995" y="685.4300000000001" />
            </Array>
          </mxGeometry>
        </mxCell>
        <mxCell id="aVOMNLlDnLgEeCud0R0b-18" value="CSVReader" style="swimlane;fontStyle=1;align=center;verticalAlign=top;childLayout=stackLayout;horizontal=1;startSize=26;horizontalStack=0;resizeParent=1;resizeParentMax=0;resizeLast=0;collapsible=1;marginBottom=0;whiteSpace=wrap;html=1;" parent="WIyWlLk6GJQsqaUBKTNV-1" vertex="1">
          <mxGeometry x="590" y="-870" width="160" height="176" as="geometry" />
        </mxCell>
        <mxCell id="aVOMNLlDnLgEeCud0R0b-19" value="+ filename: String" style="text;strokeColor=none;fillColor=none;align=left;verticalAlign=top;spacingLeft=4;spacingRight=4;overflow=hidden;rotatable=0;points=[[0,0.5],[1,0.5]];portConstraint=eastwest;whiteSpace=wrap;html=1;" parent="aVOMNLlDnLgEeCud0R0b-18" vertex="1">
          <mxGeometry y="26" width="160" height="26" as="geometry" />
        </mxCell>
        <mxCell id="aVOMNLlDnLgEeCud0R0b-20" value="" style="line;strokeWidth=1;fillColor=none;align=left;verticalAlign=middle;spacingTop=-1;spacingLeft=3;spacingRight=3;rotatable=0;labelPosition=right;points=[];portConstraint=eastwest;strokeColor=inherit;" parent="aVOMNLlDnLgEeCud0R0b-18" vertex="1">
          <mxGeometry y="52" width="160" height="8" as="geometry" />
        </mxCell>
        <mxCell id="5ml-Bbg17F_reLXBtUsv-59" value="+ getAveragePacketSize" style="text;align=left;verticalAlign=top;spacingLeft=4;spacingRight=4;overflow=hidden;rotatable=0;points=[[0,0.5],[1,0.5]];portConstraint=eastwest;" parent="aVOMNLlDnLgEeCud0R0b-18" vertex="1">
          <mxGeometry y="60" width="160" height="26" as="geometry" />
        </mxCell>
        <mxCell id="aVOMNLlDnLgEeCud0R0b-21" value="+ method(type): type" style="text;strokeColor=none;fillColor=none;align=left;verticalAlign=top;spacingLeft=4;spacingRight=4;overflow=hidden;rotatable=0;points=[[0,0.5],[1,0.5]];portConstraint=eastwest;whiteSpace=wrap;html=1;" parent="aVOMNLlDnLgEeCud0R0b-18" vertex="1">
          <mxGeometry y="86" width="160" height="90" as="geometry" />
        </mxCell>
        <mxCell id="gl7v_galG0PHqOLBkFwV-0" value="Credentials" style="swimlane;fontStyle=1;align=center;verticalAlign=top;childLayout=stackLayout;horizontal=1;startSize=26;horizontalStack=0;resizeParent=1;resizeParentMax=0;resizeLast=0;collapsible=1;marginBottom=0;whiteSpace=wrap;html=1;" parent="WIyWlLk6GJQsqaUBKTNV-1" vertex="1">
          <mxGeometry x="590" y="-1090" width="160" height="176" as="geometry">
            <mxRectangle x="650" y="70" width="110" height="30" as="alternateBounds" />
          </mxGeometry>
        </mxCell>
        <mxCell id="gl7v_galG0PHqOLBkFwV-1" value="+ field: type&lt;br&gt;- user: String&lt;br&gt;- password: String&lt;br&gt;- databaseName: String&lt;br&gt;" style="text;strokeColor=none;fillColor=none;align=left;verticalAlign=top;spacingLeft=4;spacingRight=4;overflow=hidden;rotatable=0;points=[[0,0.5],[1,0.5]];portConstraint=eastwest;whiteSpace=wrap;html=1;" parent="gl7v_galG0PHqOLBkFwV-0" vertex="1">
          <mxGeometry y="26" width="160" height="64" as="geometry" />
        </mxCell>
        <mxCell id="E8v476_gwmgkG3yzF--p-21" value="" style="line;strokeWidth=1;fillColor=none;align=left;verticalAlign=middle;spacingTop=-1;spacingLeft=3;spacingRight=3;rotatable=0;labelPosition=right;points=[];portConstraint=eastwest;strokeColor=inherit;" parent="gl7v_galG0PHqOLBkFwV-0" vertex="1">
          <mxGeometry y="90" width="160" height="8" as="geometry" />
        </mxCell>
        <mxCell id="E8v476_gwmgkG3yzF--p-19" value="+ getUser" style="text;align=left;verticalAlign=top;spacingLeft=4;spacingRight=4;overflow=hidden;rotatable=0;points=[[0,0.5],[1,0.5]];portConstraint=eastwest;" parent="gl7v_galG0PHqOLBkFwV-0" vertex="1">
          <mxGeometry y="98" width="160" height="26" as="geometry" />
        </mxCell>
        <mxCell id="E8v476_gwmgkG3yzF--p-17" value="+ getPassword" style="text;align=left;verticalAlign=top;spacingLeft=4;spacingRight=4;overflow=hidden;rotatable=0;points=[[0,0.5],[1,0.5]];portConstraint=eastwest;" parent="gl7v_galG0PHqOLBkFwV-0" vertex="1">
          <mxGeometry y="124" width="160" height="26" as="geometry" />
        </mxCell>
        <mxCell id="E8v476_gwmgkG3yzF--p-18" value="+ getDatabaseName" style="text;align=left;verticalAlign=top;spacingLeft=4;spacingRight=4;overflow=hidden;rotatable=0;points=[[0,0.5],[1,0.5]];portConstraint=eastwest;" parent="gl7v_galG0PHqOLBkFwV-0" vertex="1">
          <mxGeometry y="150" width="160" height="26" as="geometry" />
        </mxCell>
        <mxCell id="5ml-Bbg17F_reLXBtUsv-47" value="IncidentMore" style="swimlane;fontStyle=1;align=center;verticalAlign=top;childLayout=stackLayout;horizontal=1;startSize=26;horizontalStack=0;resizeParent=1;resizeParentMax=0;resizeLast=0;collapsible=1;marginBottom=0;whiteSpace=wrap;html=1;" parent="WIyWlLk6GJQsqaUBKTNV-1" vertex="1">
          <mxGeometry x="-71" y="1460" width="281" height="330" as="geometry" />
        </mxCell>
        <mxCell id="5ml-Bbg17F_reLXBtUsv-48" value="-&amp;nbsp;TotalFwdPackets: int" style="text;strokeColor=none;fillColor=none;align=left;verticalAlign=top;spacingLeft=4;spacingRight=4;overflow=hidden;rotatable=0;points=[[0,0.5],[1,0.5]];portConstraint=eastwest;whiteSpace=wrap;html=1;" parent="5ml-Bbg17F_reLXBtUsv-47" vertex="1">
          <mxGeometry y="26" width="281" height="26" as="geometry" />
        </mxCell>
        <mxCell id="5ml-Bbg17F_reLXBtUsv-45" value="-&amp;nbsp;FlowPacketspers: double" style="text;strokeColor=none;fillColor=none;align=left;verticalAlign=middle;spacingLeft=4;spacingRight=4;overflow=hidden;points=[[0,0.5],[1,0.5]];portConstraint=eastwest;rotatable=0;whiteSpace=wrap;html=1;" parent="5ml-Bbg17F_reLXBtUsv-47" vertex="1">
          <mxGeometry y="52" width="281" height="30" as="geometry" />
        </mxCell>
        <mxCell id="5ml-Bbg17F_reLXBtUsv-51" value="-&amp;nbsp;FlowDuration: long" style="text;strokeColor=none;fillColor=none;align=left;verticalAlign=middle;spacingLeft=4;spacingRight=4;overflow=hidden;points=[[0,0.5],[1,0.5]];portConstraint=eastwest;rotatable=0;whiteSpace=wrap;html=1;" parent="5ml-Bbg17F_reLXBtUsv-47" vertex="1">
          <mxGeometry y="82" width="281" height="30" as="geometry" />
        </mxCell>
        <mxCell id="5ml-Bbg17F_reLXBtUsv-52" value="-&amp;nbsp;PacketLengthVariance: double" style="text;strokeColor=none;fillColor=none;align=left;verticalAlign=middle;spacingLeft=4;spacingRight=4;overflow=hidden;points=[[0,0.5],[1,0.5]];portConstraint=eastwest;rotatable=0;whiteSpace=wrap;html=1;" parent="5ml-Bbg17F_reLXBtUsv-47" vertex="1">
          <mxGeometry y="112" width="281" height="30" as="geometry" />
        </mxCell>
        <mxCell id="5ml-Bbg17F_reLXBtUsv-53" value="-&amp;nbsp;AveragePacketSize: double" style="text;strokeColor=none;fillColor=none;align=left;verticalAlign=middle;spacingLeft=4;spacingRight=4;overflow=hidden;points=[[0,0.5],[1,0.5]];portConstraint=eastwest;rotatable=0;whiteSpace=wrap;html=1;" parent="5ml-Bbg17F_reLXBtUsv-47" vertex="1">
          <mxGeometry y="142" width="281" height="30" as="geometry" />
        </mxCell>
        <mxCell id="5ml-Bbg17F_reLXBtUsv-49" value="" style="line;strokeWidth=1;fillColor=none;align=left;verticalAlign=middle;spacingTop=-1;spacingLeft=3;spacingRight=3;rotatable=0;labelPosition=right;points=[];portConstraint=eastwest;strokeColor=inherit;" parent="5ml-Bbg17F_reLXBtUsv-47" vertex="1">
          <mxGeometry y="172" width="281" height="8" as="geometry" />
        </mxCell>
        <mxCell id="5ml-Bbg17F_reLXBtUsv-54" value="+&amp;nbsp;getTotalFwdPackets" style="text;strokeColor=none;fillColor=none;align=left;verticalAlign=middle;spacingLeft=4;spacingRight=4;overflow=hidden;points=[[0,0.5],[1,0.5]];portConstraint=eastwest;rotatable=0;whiteSpace=wrap;html=1;" parent="5ml-Bbg17F_reLXBtUsv-47" vertex="1">
          <mxGeometry y="180" width="281" height="30" as="geometry" />
        </mxCell>
        <mxCell id="5ml-Bbg17F_reLXBtUsv-57" value="+&amp;nbsp;getFlowPacketspers" style="text;strokeColor=none;fillColor=none;align=left;verticalAlign=middle;spacingLeft=4;spacingRight=4;overflow=hidden;points=[[0,0.5],[1,0.5]];portConstraint=eastwest;rotatable=0;whiteSpace=wrap;html=1;" parent="5ml-Bbg17F_reLXBtUsv-47" vertex="1">
          <mxGeometry y="210" width="281" height="30" as="geometry" />
        </mxCell>
        <mxCell id="5ml-Bbg17F_reLXBtUsv-58" value="+&amp;nbsp;getFlowDuration" style="text;strokeColor=none;fillColor=none;align=left;verticalAlign=middle;spacingLeft=4;spacingRight=4;overflow=hidden;points=[[0,0.5],[1,0.5]];portConstraint=eastwest;rotatable=0;whiteSpace=wrap;html=1;" parent="5ml-Bbg17F_reLXBtUsv-47" vertex="1">
          <mxGeometry y="240" width="281" height="30" as="geometry" />
        </mxCell>
        <mxCell id="5ml-Bbg17F_reLXBtUsv-56" value="+&amp;nbsp;getPacketLengthVariance" style="text;strokeColor=none;fillColor=none;align=left;verticalAlign=middle;spacingLeft=4;spacingRight=4;overflow=hidden;points=[[0,0.5],[1,0.5]];portConstraint=eastwest;rotatable=0;whiteSpace=wrap;html=1;" parent="5ml-Bbg17F_reLXBtUsv-47" vertex="1">
          <mxGeometry y="270" width="281" height="30" as="geometry" />
        </mxCell>
        <mxCell id="5ml-Bbg17F_reLXBtUsv-50" value="+&amp;nbsp;getAveragePacketSize" style="text;strokeColor=none;fillColor=none;align=left;verticalAlign=top;spacingLeft=4;spacingRight=4;overflow=hidden;rotatable=0;points=[[0,0.5],[1,0.5]];portConstraint=eastwest;whiteSpace=wrap;html=1;" parent="5ml-Bbg17F_reLXBtUsv-47" vertex="1">
          <mxGeometry y="300" width="281" height="30" as="geometry" />
        </mxCell>
        <mxCell id="5ml-Bbg17F_reLXBtUsv-60" value="Database" style="swimlane;fontStyle=1;align=center;verticalAlign=top;childLayout=stackLayout;horizontal=1;startSize=26;horizontalStack=0;resizeParent=1;resizeParentMax=0;resizeLast=0;collapsible=1;marginBottom=0;whiteSpace=wrap;html=1;" parent="WIyWlLk6GJQsqaUBKTNV-1" vertex="1">
          <mxGeometry x="139" y="-1140" width="290" height="866" as="geometry">
            <mxRectangle x="1320" y="141" width="100" height="30" as="alternateBounds" />
          </mxGeometry>
        </mxCell>
        <mxCell id="5ml-Bbg17F_reLXBtUsv-61" value="-&amp;nbsp;connection: Connection" style="text;strokeColor=none;fillColor=none;align=left;verticalAlign=top;spacingLeft=4;spacingRight=4;overflow=hidden;rotatable=0;points=[[0,0.5],[1,0.5]];portConstraint=eastwest;whiteSpace=wrap;html=1;" parent="5ml-Bbg17F_reLXBtUsv-60" vertex="1">
          <mxGeometry y="26" width="290" height="26" as="geometry" />
        </mxCell>
        <mxCell id="5ml-Bbg17F_reLXBtUsv-70" value="-&amp;nbsp;statement: Statement" style="text;strokeColor=none;fillColor=none;align=left;verticalAlign=top;spacingLeft=4;spacingRight=4;overflow=hidden;rotatable=0;points=[[0,0.5],[1,0.5]];portConstraint=eastwest;whiteSpace=wrap;html=1;" parent="5ml-Bbg17F_reLXBtUsv-60" vertex="1">
          <mxGeometry y="52" width="290" height="26" as="geometry" />
        </mxCell>
        <mxCell id="5ml-Bbg17F_reLXBtUsv-69" value="-&amp;nbsp;dataTypeMapping: HashMap&amp;lt;String, String&amp;gt;" style="text;strokeColor=none;fillColor=none;align=left;verticalAlign=top;spacingLeft=4;spacingRight=4;overflow=hidden;rotatable=0;points=[[0,0.5],[1,0.5]];portConstraint=eastwest;whiteSpace=wrap;html=1;" parent="5ml-Bbg17F_reLXBtUsv-60" vertex="1">
          <mxGeometry y="78" width="290" height="26" as="geometry" />
        </mxCell>
        <mxCell id="5ml-Bbg17F_reLXBtUsv-68" value="-&amp;nbsp;TotalSet: HashSet &amp;lt;Integer&amp;gt;" style="text;strokeColor=none;fillColor=none;align=left;verticalAlign=top;spacingLeft=4;spacingRight=4;overflow=hidden;rotatable=0;points=[[0,0.5],[1,0.5]];portConstraint=eastwest;whiteSpace=wrap;html=1;" parent="5ml-Bbg17F_reLXBtUsv-60" vertex="1">
          <mxGeometry y="104" width="290" height="26" as="geometry" />
        </mxCell>
        <mxCell id="5ml-Bbg17F_reLXBtUsv-65" value="- BenignSet: HashSet &amp;lt;Integer&amp;gt;" style="text;strokeColor=none;fillColor=none;align=left;verticalAlign=top;spacingLeft=4;spacingRight=4;overflow=hidden;rotatable=0;points=[[0,0.5],[1,0.5]];portConstraint=eastwest;whiteSpace=wrap;html=1;" parent="5ml-Bbg17F_reLXBtUsv-60" vertex="1">
          <mxGeometry y="130" width="290" height="26" as="geometry" />
        </mxCell>
        <mxCell id="5ml-Bbg17F_reLXBtUsv-64" value="- AdwareSet: HashSet &amp;lt;Integer&amp;gt;" style="text;strokeColor=none;fillColor=none;align=left;verticalAlign=top;spacingLeft=4;spacingRight=4;overflow=hidden;rotatable=0;points=[[0,0.5],[1,0.5]];portConstraint=eastwest;whiteSpace=wrap;html=1;" parent="5ml-Bbg17F_reLXBtUsv-60" vertex="1">
          <mxGeometry y="156" width="290" height="26" as="geometry" />
        </mxCell>
        <mxCell id="5ml-Bbg17F_reLXBtUsv-67" value="- ScarewareSet: HashSet &amp;lt;Integer&amp;gt;" style="text;strokeColor=none;fillColor=none;align=left;verticalAlign=top;spacingLeft=4;spacingRight=4;overflow=hidden;rotatable=0;points=[[0,0.5],[1,0.5]];portConstraint=eastwest;whiteSpace=wrap;html=1;" parent="5ml-Bbg17F_reLXBtUsv-60" vertex="1">
          <mxGeometry y="182" width="290" height="26" as="geometry" />
        </mxCell>
        <mxCell id="5ml-Bbg17F_reLXBtUsv-66" value="- SMSSet: HashSet &amp;lt;Integer&amp;gt;" style="text;strokeColor=none;fillColor=none;align=left;verticalAlign=top;spacingLeft=4;spacingRight=4;overflow=hidden;rotatable=0;points=[[0,0.5],[1,0.5]];portConstraint=eastwest;whiteSpace=wrap;html=1;" parent="5ml-Bbg17F_reLXBtUsv-60" vertex="1">
          <mxGeometry y="208" width="290" height="26" as="geometry" />
        </mxCell>
        <mxCell id="5ml-Bbg17F_reLXBtUsv-62" value="" style="line;strokeWidth=1;fillColor=none;align=left;verticalAlign=middle;spacingTop=-1;spacingLeft=3;spacingRight=3;rotatable=0;labelPosition=right;points=[];portConstraint=eastwest;strokeColor=inherit;" parent="5ml-Bbg17F_reLXBtUsv-60" vertex="1">
          <mxGeometry y="234" width="290" height="8" as="geometry" />
        </mxCell>
        <mxCell id="5ml-Bbg17F_reLXBtUsv-97" value="+&amp;nbsp;closeDatabaseConnection" style="text;strokeColor=none;fillColor=none;align=left;verticalAlign=top;spacingLeft=4;spacingRight=4;overflow=hidden;rotatable=0;points=[[0,0.5],[1,0.5]];portConstraint=eastwest;whiteSpace=wrap;html=1;" parent="5ml-Bbg17F_reLXBtUsv-60" vertex="1">
          <mxGeometry y="242" width="290" height="26" as="geometry" />
        </mxCell>
        <mxCell id="5ml-Bbg17F_reLXBtUsv-96" value="+&amp;nbsp;getTotalSetSize" style="text;strokeColor=none;fillColor=none;align=left;verticalAlign=top;spacingLeft=4;spacingRight=4;overflow=hidden;rotatable=0;points=[[0,0.5],[1,0.5]];portConstraint=eastwest;whiteSpace=wrap;html=1;" parent="5ml-Bbg17F_reLXBtUsv-60" vertex="1">
          <mxGeometry y="268" width="290" height="26" as="geometry" />
        </mxCell>
        <mxCell id="5ml-Bbg17F_reLXBtUsv-85" value="+&amp;nbsp;getBenignSetSize" style="text;strokeColor=none;fillColor=none;align=left;verticalAlign=top;spacingLeft=4;spacingRight=4;overflow=hidden;rotatable=0;points=[[0,0.5],[1,0.5]];portConstraint=eastwest;whiteSpace=wrap;html=1;" parent="5ml-Bbg17F_reLXBtUsv-60" vertex="1">
          <mxGeometry y="294" width="290" height="26" as="geometry" />
        </mxCell>
        <mxCell id="5ml-Bbg17F_reLXBtUsv-83" value="+&amp;nbsp;getAdwareSetSize" style="text;strokeColor=none;fillColor=none;align=left;verticalAlign=top;spacingLeft=4;spacingRight=4;overflow=hidden;rotatable=0;points=[[0,0.5],[1,0.5]];portConstraint=eastwest;whiteSpace=wrap;html=1;" parent="5ml-Bbg17F_reLXBtUsv-60" vertex="1">
          <mxGeometry y="320" width="290" height="26" as="geometry" />
        </mxCell>
        <mxCell id="5ml-Bbg17F_reLXBtUsv-84" value="+&amp;nbsp;getScarewareSetSize" style="text;strokeColor=none;fillColor=none;align=left;verticalAlign=top;spacingLeft=4;spacingRight=4;overflow=hidden;rotatable=0;points=[[0,0.5],[1,0.5]];portConstraint=eastwest;whiteSpace=wrap;html=1;" parent="5ml-Bbg17F_reLXBtUsv-60" vertex="1">
          <mxGeometry y="346" width="290" height="26" as="geometry" />
        </mxCell>
        <mxCell id="5ml-Bbg17F_reLXBtUsv-79" value="+&amp;nbsp;getSMSSetSize" style="text;strokeColor=none;fillColor=none;align=left;verticalAlign=top;spacingLeft=4;spacingRight=4;overflow=hidden;rotatable=0;points=[[0,0.5],[1,0.5]];portConstraint=eastwest;whiteSpace=wrap;html=1;" parent="5ml-Bbg17F_reLXBtUsv-60" vertex="1">
          <mxGeometry y="372" width="290" height="26" as="geometry" />
        </mxCell>
        <mxCell id="5ml-Bbg17F_reLXBtUsv-82" value="+&amp;nbsp;fillMapper" style="text;strokeColor=none;fillColor=none;align=left;verticalAlign=top;spacingLeft=4;spacingRight=4;overflow=hidden;rotatable=0;points=[[0,0.5],[1,0.5]];portConstraint=eastwest;whiteSpace=wrap;html=1;" parent="5ml-Bbg17F_reLXBtUsv-60" vertex="1">
          <mxGeometry y="398" width="290" height="26" as="geometry" />
        </mxCell>
        <mxCell id="5ml-Bbg17F_reLXBtUsv-80" value="+&amp;nbsp;getDataType" style="text;strokeColor=none;fillColor=none;align=left;verticalAlign=top;spacingLeft=4;spacingRight=4;overflow=hidden;rotatable=0;points=[[0,0.5],[1,0.5]];portConstraint=eastwest;whiteSpace=wrap;html=1;" parent="5ml-Bbg17F_reLXBtUsv-60" vertex="1">
          <mxGeometry y="424" width="290" height="26" as="geometry" />
        </mxCell>
        <mxCell id="5ml-Bbg17F_reLXBtUsv-90" value="+&amp;nbsp;printIncident" style="text;strokeColor=none;fillColor=none;align=left;verticalAlign=top;spacingLeft=4;spacingRight=4;overflow=hidden;rotatable=0;points=[[0,0.5],[1,0.5]];portConstraint=eastwest;whiteSpace=wrap;html=1;" parent="5ml-Bbg17F_reLXBtUsv-60" vertex="1">
          <mxGeometry y="450" width="290" height="26" as="geometry" />
        </mxCell>
        <mxCell id="5ml-Bbg17F_reLXBtUsv-72" value="+&amp;nbsp;addIncident" style="text;strokeColor=none;fillColor=none;align=left;verticalAlign=top;spacingLeft=4;spacingRight=4;overflow=hidden;rotatable=0;points=[[0,0.5],[1,0.5]];portConstraint=eastwest;whiteSpace=wrap;html=1;" parent="5ml-Bbg17F_reLXBtUsv-60" vertex="1">
          <mxGeometry y="476" width="290" height="26" as="geometry" />
        </mxCell>
        <mxCell id="5ml-Bbg17F_reLXBtUsv-76" value="+&amp;nbsp;getSamples" style="text;strokeColor=none;fillColor=none;align=left;verticalAlign=top;spacingLeft=4;spacingRight=4;overflow=hidden;rotatable=0;points=[[0,0.5],[1,0.5]];portConstraint=eastwest;whiteSpace=wrap;html=1;" parent="5ml-Bbg17F_reLXBtUsv-60" vertex="1">
          <mxGeometry y="502" width="290" height="26" as="geometry" />
        </mxCell>
        <mxCell id="5ml-Bbg17F_reLXBtUsv-78" value="+&amp;nbsp;verifyLogin" style="text;strokeColor=none;fillColor=none;align=left;verticalAlign=top;spacingLeft=4;spacingRight=4;overflow=hidden;rotatable=0;points=[[0,0.5],[1,0.5]];portConstraint=eastwest;whiteSpace=wrap;html=1;" parent="5ml-Bbg17F_reLXBtUsv-60" vertex="1">
          <mxGeometry y="528" width="290" height="26" as="geometry" />
        </mxCell>
        <mxCell id="5ml-Bbg17F_reLXBtUsv-95" value="+&amp;nbsp;getTop15Scareware" style="text;strokeColor=none;fillColor=none;align=left;verticalAlign=top;spacingLeft=4;spacingRight=4;overflow=hidden;rotatable=0;points=[[0,0.5],[1,0.5]];portConstraint=eastwest;whiteSpace=wrap;html=1;" parent="5ml-Bbg17F_reLXBtUsv-60" vertex="1">
          <mxGeometry y="554" width="290" height="26" as="geometry" />
        </mxCell>
        <mxCell id="5ml-Bbg17F_reLXBtUsv-94" value="+&amp;nbsp;getTop15Adware" style="text;strokeColor=none;fillColor=none;align=left;verticalAlign=top;spacingLeft=4;spacingRight=4;overflow=hidden;rotatable=0;points=[[0,0.5],[1,0.5]];portConstraint=eastwest;whiteSpace=wrap;html=1;" parent="5ml-Bbg17F_reLXBtUsv-60" vertex="1">
          <mxGeometry y="580" width="290" height="26" as="geometry" />
        </mxCell>
        <mxCell id="5ml-Bbg17F_reLXBtUsv-89" value="+&amp;nbsp;getTop15SMS" style="text;strokeColor=none;fillColor=none;align=left;verticalAlign=top;spacingLeft=4;spacingRight=4;overflow=hidden;rotatable=0;points=[[0,0.5],[1,0.5]];portConstraint=eastwest;whiteSpace=wrap;html=1;" parent="5ml-Bbg17F_reLXBtUsv-60" vertex="1">
          <mxGeometry y="606" width="290" height="26" as="geometry" />
        </mxCell>
        <mxCell id="5ml-Bbg17F_reLXBtUsv-88" value="+&amp;nbsp;getIncident" style="text;strokeColor=none;fillColor=none;align=left;verticalAlign=top;spacingLeft=4;spacingRight=4;overflow=hidden;rotatable=0;points=[[0,0.5],[1,0.5]];portConstraint=eastwest;whiteSpace=wrap;html=1;" parent="5ml-Bbg17F_reLXBtUsv-60" vertex="1">
          <mxGeometry y="632" width="290" height="26" as="geometry" />
        </mxCell>
        <mxCell id="5ml-Bbg17F_reLXBtUsv-75" value="+&amp;nbsp;searchByProtocol" style="text;strokeColor=none;fillColor=none;align=left;verticalAlign=top;spacingLeft=4;spacingRight=4;overflow=hidden;rotatable=0;points=[[0,0.5],[1,0.5]];portConstraint=eastwest;whiteSpace=wrap;html=1;" parent="5ml-Bbg17F_reLXBtUsv-60" vertex="1">
          <mxGeometry y="658" width="290" height="26" as="geometry" />
        </mxCell>
        <mxCell id="5ml-Bbg17F_reLXBtUsv-87" value="+&amp;nbsp;addNewIncident" style="text;strokeColor=none;fillColor=none;align=left;verticalAlign=top;spacingLeft=4;spacingRight=4;overflow=hidden;rotatable=0;points=[[0,0.5],[1,0.5]];portConstraint=eastwest;whiteSpace=wrap;html=1;" parent="5ml-Bbg17F_reLXBtUsv-60" vertex="1">
          <mxGeometry y="684" width="290" height="26" as="geometry" />
        </mxCell>
        <mxCell id="5ml-Bbg17F_reLXBtUsv-81" value="+ getAllSamples" style="text;strokeColor=none;fillColor=none;align=left;verticalAlign=top;spacingLeft=4;spacingRight=4;overflow=hidden;rotatable=0;points=[[0,0.5],[1,0.5]];portConstraint=eastwest;whiteSpace=wrap;html=1;" parent="5ml-Bbg17F_reLXBtUsv-60" vertex="1">
          <mxGeometry y="710" width="290" height="26" as="geometry" />
        </mxCell>
        <mxCell id="E8v476_gwmgkG3yzF--p-0" value="+&amp;nbsp;searchAdware" style="text;strokeColor=none;fillColor=none;align=left;verticalAlign=top;spacingLeft=4;spacingRight=4;overflow=hidden;rotatable=0;points=[[0,0.5],[1,0.5]];portConstraint=eastwest;whiteSpace=wrap;html=1;" parent="5ml-Bbg17F_reLXBtUsv-60" vertex="1">
          <mxGeometry y="736" width="290" height="26" as="geometry" />
        </mxCell>
        <mxCell id="5ml-Bbg17F_reLXBtUsv-93" value="+&amp;nbsp;searchScareware" style="text;strokeColor=none;fillColor=none;align=left;verticalAlign=top;spacingLeft=4;spacingRight=4;overflow=hidden;rotatable=0;points=[[0,0.5],[1,0.5]];portConstraint=eastwest;whiteSpace=wrap;html=1;" parent="5ml-Bbg17F_reLXBtUsv-60" vertex="1">
          <mxGeometry y="762" width="290" height="26" as="geometry" />
        </mxCell>
        <mxCell id="5ml-Bbg17F_reLXBtUsv-73" value="+&amp;nbsp;searchSMS" style="text;strokeColor=none;fillColor=none;align=left;verticalAlign=top;spacingLeft=4;spacingRight=4;overflow=hidden;rotatable=0;points=[[0,0.5],[1,0.5]];portConstraint=eastwest;whiteSpace=wrap;html=1;" parent="5ml-Bbg17F_reLXBtUsv-60" vertex="1">
          <mxGeometry y="788" width="290" height="26" as="geometry" />
        </mxCell>
        <mxCell id="5ml-Bbg17F_reLXBtUsv-92" value="+&amp;nbsp;searchBenign" style="text;strokeColor=none;fillColor=none;align=left;verticalAlign=top;spacingLeft=4;spacingRight=4;overflow=hidden;rotatable=0;points=[[0,0.5],[1,0.5]];portConstraint=eastwest;whiteSpace=wrap;html=1;" parent="5ml-Bbg17F_reLXBtUsv-60" vertex="1">
          <mxGeometry y="814" width="290" height="26" as="geometry" />
        </mxCell>
        <mxCell id="E8v476_gwmgkG3yzF--p-1" value="+&amp;nbsp;searchByPort" style="text;strokeColor=none;fillColor=none;align=left;verticalAlign=top;spacingLeft=4;spacingRight=4;overflow=hidden;rotatable=0;points=[[0,0.5],[1,0.5]];portConstraint=eastwest;whiteSpace=wrap;html=1;" parent="5ml-Bbg17F_reLXBtUsv-60" vertex="1">
          <mxGeometry y="840" width="290" height="26" as="geometry" />
        </mxCell>
        <mxCell id="g-N7Jogjo_735Z3HOHTk-0" value="Results" style="swimlane;fontStyle=1;align=center;verticalAlign=top;childLayout=stackLayout;horizontal=1;startSize=26;horizontalStack=0;resizeParent=1;resizeParentMax=0;resizeLast=0;collapsible=1;marginBottom=0;whiteSpace=wrap;html=1;" parent="WIyWlLk6GJQsqaUBKTNV-1" vertex="1">
          <mxGeometry x="-630" y="-527" width="160" height="350" as="geometry" />
        </mxCell>
        <mxCell id="g-N7Jogjo_735Z3HOHTk-1" value="- total: int" style="text;strokeColor=none;fillColor=none;align=left;verticalAlign=top;spacingLeft=4;spacingRight=4;overflow=hidden;rotatable=0;points=[[0,0.5],[1,0.5]];portConstraint=eastwest;whiteSpace=wrap;html=1;" parent="g-N7Jogjo_735Z3HOHTk-0" vertex="1">
          <mxGeometry y="26" width="160" height="26" as="geometry" />
        </mxCell>
        <mxCell id="g-N7Jogjo_735Z3HOHTk-4" value="- benign: int" style="text;align=left;verticalAlign=top;spacingLeft=4;spacingRight=4;overflow=hidden;rotatable=0;points=[[0,0.5],[1,0.5]];portConstraint=eastwest;rounded=0;shadow=0;html=0;" parent="g-N7Jogjo_735Z3HOHTk-0" vertex="1">
          <mxGeometry y="52" width="160" height="26" as="geometry" />
        </mxCell>
        <mxCell id="g-N7Jogjo_735Z3HOHTk-8" value="- malicious: int" style="text;align=left;verticalAlign=top;spacingLeft=4;spacingRight=4;overflow=hidden;rotatable=0;points=[[0,0.5],[1,0.5]];portConstraint=eastwest;rounded=0;shadow=0;html=0;" parent="g-N7Jogjo_735Z3HOHTk-0" vertex="1">
          <mxGeometry y="78" width="160" height="26" as="geometry" />
        </mxCell>
        <mxCell id="g-N7Jogjo_735Z3HOHTk-6" value="- adware: int" style="text;align=left;verticalAlign=top;spacingLeft=4;spacingRight=4;overflow=hidden;rotatable=0;points=[[0,0.5],[1,0.5]];portConstraint=eastwest;rounded=0;shadow=0;html=0;" parent="g-N7Jogjo_735Z3HOHTk-0" vertex="1">
          <mxGeometry y="104" width="160" height="26" as="geometry" />
        </mxCell>
        <mxCell id="g-N7Jogjo_735Z3HOHTk-7" value="- scareware: int" style="text;align=left;verticalAlign=top;spacingLeft=4;spacingRight=4;overflow=hidden;rotatable=0;points=[[0,0.5],[1,0.5]];portConstraint=eastwest;rounded=0;shadow=0;html=0;" parent="g-N7Jogjo_735Z3HOHTk-0" vertex="1">
          <mxGeometry y="130" width="160" height="26" as="geometry" />
        </mxCell>
        <mxCell id="g-N7Jogjo_735Z3HOHTk-9" value="- sms: int" style="text;align=left;verticalAlign=top;spacingLeft=4;spacingRight=4;overflow=hidden;rotatable=0;points=[[0,0.5],[1,0.5]];portConstraint=eastwest;rounded=0;shadow=0;html=0;" parent="g-N7Jogjo_735Z3HOHTk-0" vertex="1">
          <mxGeometry y="156" width="160" height="26" as="geometry" />
        </mxCell>
        <mxCell id="g-N7Jogjo_735Z3HOHTk-2" value="" style="line;strokeWidth=1;fillColor=none;align=left;verticalAlign=middle;spacingTop=-1;spacingLeft=3;spacingRight=3;rotatable=0;labelPosition=right;points=[];portConstraint=eastwest;strokeColor=inherit;" parent="g-N7Jogjo_735Z3HOHTk-0" vertex="1">
          <mxGeometry y="182" width="160" height="8" as="geometry" />
        </mxCell>
        <mxCell id="g-N7Jogjo_735Z3HOHTk-13" value="+ getTotal" style="text;align=left;verticalAlign=top;spacingLeft=4;spacingRight=4;overflow=hidden;rotatable=0;points=[[0,0.5],[1,0.5]];portConstraint=eastwest;rounded=0;shadow=0;html=0;" parent="g-N7Jogjo_735Z3HOHTk-0" vertex="1">
          <mxGeometry y="190" width="160" height="26" as="geometry" />
        </mxCell>
        <mxCell id="g-N7Jogjo_735Z3HOHTk-5" value="+ getBenign" style="text;align=left;verticalAlign=top;spacingLeft=4;spacingRight=4;overflow=hidden;rotatable=0;points=[[0,0.5],[1,0.5]];portConstraint=eastwest;rounded=0;shadow=0;html=0;" parent="g-N7Jogjo_735Z3HOHTk-0" vertex="1">
          <mxGeometry y="216" width="160" height="26" as="geometry" />
        </mxCell>
        <mxCell id="g-N7Jogjo_735Z3HOHTk-11" value="+ getMalicious" style="text;align=left;verticalAlign=top;spacingLeft=4;spacingRight=4;overflow=hidden;rotatable=0;points=[[0,0.5],[1,0.5]];portConstraint=eastwest;rounded=0;shadow=0;html=0;" parent="g-N7Jogjo_735Z3HOHTk-0" vertex="1">
          <mxGeometry y="242" width="160" height="26" as="geometry" />
        </mxCell>
        <mxCell id="g-N7Jogjo_735Z3HOHTk-10" value="+ getAdware" style="text;align=left;verticalAlign=top;spacingLeft=4;spacingRight=4;overflow=hidden;rotatable=0;points=[[0,0.5],[1,0.5]];portConstraint=eastwest;rounded=0;shadow=0;html=0;" parent="g-N7Jogjo_735Z3HOHTk-0" vertex="1">
          <mxGeometry y="268" width="160" height="26" as="geometry" />
        </mxCell>
        <mxCell id="g-N7Jogjo_735Z3HOHTk-12" value="+ getScareware" style="text;align=left;verticalAlign=top;spacingLeft=4;spacingRight=4;overflow=hidden;rotatable=0;points=[[0,0.5],[1,0.5]];portConstraint=eastwest;rounded=0;shadow=0;html=0;" parent="g-N7Jogjo_735Z3HOHTk-0" vertex="1">
          <mxGeometry y="294" width="160" height="26" as="geometry" />
        </mxCell>
        <mxCell id="g-N7Jogjo_735Z3HOHTk-3" value="+&amp;nbsp;getSms" style="text;strokeColor=none;fillColor=none;align=left;verticalAlign=top;spacingLeft=4;spacingRight=4;overflow=hidden;rotatable=0;points=[[0,0.5],[1,0.5]];portConstraint=eastwest;whiteSpace=wrap;html=1;" parent="g-N7Jogjo_735Z3HOHTk-0" vertex="1">
          <mxGeometry y="320" width="160" height="30" as="geometry" />
        </mxCell>
        <mxCell id="g-N7Jogjo_735Z3HOHTk-15" value="LoginSceneController" style="swimlane;fontStyle=1;align=center;verticalAlign=top;childLayout=stackLayout;horizontal=1;startSize=26;horizontalStack=0;resizeParent=1;resizeParentMax=0;resizeLast=0;collapsible=1;marginBottom=0;whiteSpace=wrap;html=1;" parent="WIyWlLk6GJQsqaUBKTNV-1" vertex="1">
          <mxGeometry x="-280" y="-1110" width="250" height="310" as="geometry" />
        </mxCell>
        <mxCell id="g-N7Jogjo_735Z3HOHTk-16" value="-&amp;nbsp;nameTextField: TextField" style="text;strokeColor=none;fillColor=none;align=left;verticalAlign=top;spacingLeft=4;spacingRight=4;overflow=hidden;rotatable=0;points=[[0,0.5],[1,0.5]];portConstraint=eastwest;whiteSpace=wrap;html=1;" parent="g-N7Jogjo_735Z3HOHTk-15" vertex="1">
          <mxGeometry y="26" width="250" height="26" as="geometry" />
        </mxCell>
        <mxCell id="g-N7Jogjo_735Z3HOHTk-25" value="- passwordField: PasswordField" style="text;align=left;verticalAlign=top;spacingLeft=4;spacingRight=4;overflow=hidden;rotatable=0;points=[[0,0.5],[1,0.5]];portConstraint=eastwest;rounded=0;shadow=0;html=0;" parent="g-N7Jogjo_735Z3HOHTk-15" vertex="1">
          <mxGeometry y="52" width="250" height="26" as="geometry" />
        </mxCell>
        <mxCell id="g-N7Jogjo_735Z3HOHTk-19" value="- scenePane: AnchorPane" style="text;align=left;verticalAlign=top;spacingLeft=4;spacingRight=4;overflow=hidden;rotatable=0;points=[[0,0.5],[1,0.5]];portConstraint=eastwest;rounded=0;shadow=0;html=0;" parent="g-N7Jogjo_735Z3HOHTk-15" vertex="1">
          <mxGeometry y="78" width="250" height="26" as="geometry" />
        </mxCell>
        <mxCell id="g-N7Jogjo_735Z3HOHTk-22" value="# database: Database" style="text;align=left;verticalAlign=top;spacingLeft=4;spacingRight=4;overflow=hidden;rotatable=0;points=[[0,0.5],[1,0.5]];portConstraint=eastwest;rounded=0;shadow=0;html=0;" parent="g-N7Jogjo_735Z3HOHTk-15" vertex="1">
          <mxGeometry y="104" width="250" height="26" as="geometry" />
        </mxCell>
        <mxCell id="g-N7Jogjo_735Z3HOHTk-20" value="- stage: Stage" style="text;align=left;verticalAlign=top;spacingLeft=4;spacingRight=4;overflow=hidden;rotatable=0;points=[[0,0.5],[1,0.5]];portConstraint=eastwest;rounded=0;shadow=0;html=0;" parent="g-N7Jogjo_735Z3HOHTk-15" vertex="1">
          <mxGeometry y="130" width="250" height="26" as="geometry" />
        </mxCell>
        <mxCell id="g-N7Jogjo_735Z3HOHTk-21" value="- scene: Scene" style="text;align=left;verticalAlign=top;spacingLeft=4;spacingRight=4;overflow=hidden;rotatable=0;points=[[0,0.5],[1,0.5]];portConstraint=eastwest;rounded=0;shadow=0;html=0;" parent="g-N7Jogjo_735Z3HOHTk-15" vertex="1">
          <mxGeometry y="156" width="250" height="26" as="geometry" />
        </mxCell>
        <mxCell id="g-N7Jogjo_735Z3HOHTk-23" value="- root: Node" style="text;align=left;verticalAlign=top;spacingLeft=4;spacingRight=4;overflow=hidden;rotatable=0;points=[[0,0.5],[1,0.5]];portConstraint=eastwest;rounded=0;shadow=0;html=0;" parent="g-N7Jogjo_735Z3HOHTk-15" vertex="1">
          <mxGeometry y="182" width="250" height="26" as="geometry" />
        </mxCell>
        <mxCell id="g-N7Jogjo_735Z3HOHTk-17" value="" style="line;strokeWidth=1;fillColor=none;align=left;verticalAlign=middle;spacingTop=-1;spacingLeft=3;spacingRight=3;rotatable=0;labelPosition=right;points=[];portConstraint=eastwest;strokeColor=inherit;" parent="g-N7Jogjo_735Z3HOHTk-15" vertex="1">
          <mxGeometry y="208" width="250" height="8" as="geometry" />
        </mxCell>
        <mxCell id="g-N7Jogjo_735Z3HOHTk-27" value="+ login" style="text;align=left;verticalAlign=top;spacingLeft=4;spacingRight=4;overflow=hidden;rotatable=0;points=[[0,0.5],[1,0.5]];portConstraint=eastwest;rounded=0;shadow=0;html=0;" parent="g-N7Jogjo_735Z3HOHTk-15" vertex="1">
          <mxGeometry y="216" width="250" height="26" as="geometry" />
        </mxCell>
        <mxCell id="g-N7Jogjo_735Z3HOHTk-26" value="+ linkDatabaseObject" style="text;align=left;verticalAlign=top;spacingLeft=4;spacingRight=4;overflow=hidden;rotatable=0;points=[[0,0.5],[1,0.5]];portConstraint=eastwest;rounded=0;shadow=0;html=0;" parent="g-N7Jogjo_735Z3HOHTk-15" vertex="1">
          <mxGeometry y="242" width="250" height="26" as="geometry" />
        </mxCell>
        <mxCell id="g-N7Jogjo_735Z3HOHTk-18" value="+&amp;nbsp;exit" style="text;strokeColor=none;fillColor=none;align=left;verticalAlign=top;spacingLeft=4;spacingRight=4;overflow=hidden;rotatable=0;points=[[0,0.5],[1,0.5]];portConstraint=eastwest;whiteSpace=wrap;html=1;" parent="g-N7Jogjo_735Z3HOHTk-15" vertex="1">
          <mxGeometry y="268" width="250" height="42" as="geometry" />
        </mxCell>
        <mxCell id="g-N7Jogjo_735Z3HOHTk-28" value="Controller" style="swimlane;fontStyle=1;align=center;verticalAlign=top;childLayout=stackLayout;horizontal=1;startSize=26;horizontalStack=0;resizeParent=1;resizeParentMax=0;resizeLast=0;collapsible=1;marginBottom=0;whiteSpace=wrap;html=1;" parent="WIyWlLk6GJQsqaUBKTNV-1" vertex="1">
          <mxGeometry x="-300" y="-660" width="270" height="616" as="geometry" />
        </mxCell>
        <mxCell id="g-N7Jogjo_735Z3HOHTk-32" value="- mainBox: VBox" style="text;align=left;verticalAlign=top;spacingLeft=4;spacingRight=4;overflow=hidden;rotatable=0;points=[[0,0.5],[1,0.5]];portConstraint=eastwest;rounded=0;shadow=0;html=0;" parent="g-N7Jogjo_735Z3HOHTk-28" vertex="1">
          <mxGeometry y="26" width="270" height="26" as="geometry" />
        </mxCell>
        <mxCell id="g-N7Jogjo_735Z3HOHTk-35" value="- scenePane: AnchorPane" style="text;align=left;verticalAlign=top;spacingLeft=4;spacingRight=4;overflow=hidden;rotatable=0;points=[[0,0.5],[1,0.5]];portConstraint=eastwest;rounded=0;shadow=0;html=0;" parent="g-N7Jogjo_735Z3HOHTk-28" vertex="1">
          <mxGeometry y="52" width="270" height="26" as="geometry" />
        </mxCell>
        <mxCell id="g-N7Jogjo_735Z3HOHTk-34" value="- flag: int" style="text;align=left;verticalAlign=top;spacingLeft=4;spacingRight=4;overflow=hidden;rotatable=0;points=[[0,0.5],[1,0.5]];portConstraint=eastwest;rounded=0;shadow=0;html=0;" parent="g-N7Jogjo_735Z3HOHTk-28" vertex="1">
          <mxGeometry y="78" width="270" height="26" as="geometry" />
        </mxCell>
        <mxCell id="g-N7Jogjo_735Z3HOHTk-29" value="-&amp;nbsp;samples: int" style="text;strokeColor=none;fillColor=none;align=left;verticalAlign=top;spacingLeft=4;spacingRight=4;overflow=hidden;rotatable=0;points=[[0,0.5],[1,0.5]];portConstraint=eastwest;whiteSpace=wrap;html=1;" parent="g-N7Jogjo_735Z3HOHTk-28" vertex="1">
          <mxGeometry y="104" width="270" height="26" as="geometry" />
        </mxCell>
        <mxCell id="g-N7Jogjo_735Z3HOHTk-30" value="" style="line;strokeWidth=1;fillColor=none;align=left;verticalAlign=middle;spacingTop=-1;spacingLeft=3;spacingRight=3;rotatable=0;labelPosition=right;points=[];portConstraint=eastwest;strokeColor=inherit;" parent="g-N7Jogjo_735Z3HOHTk-28" vertex="1">
          <mxGeometry y="130" width="270" height="8" as="geometry" />
        </mxCell>
        <mxCell id="g-N7Jogjo_735Z3HOHTk-45" value="+ exit" style="text;strokeColor=none;fillColor=none;align=left;verticalAlign=top;spacingLeft=4;spacingRight=4;overflow=hidden;rotatable=0;points=[[0,0.5],[1,0.5]];portConstraint=eastwest;whiteSpace=wrap;html=1;" parent="g-N7Jogjo_735Z3HOHTk-28" vertex="1">
          <mxGeometry y="138" width="270" height="26" as="geometry" />
        </mxCell>
        <mxCell id="g-N7Jogjo_735Z3HOHTk-44" value="+&amp;nbsp;changeSampleRate" style="text;strokeColor=none;fillColor=none;align=left;verticalAlign=top;spacingLeft=4;spacingRight=4;overflow=hidden;rotatable=0;points=[[0,0.5],[1,0.5]];portConstraint=eastwest;whiteSpace=wrap;html=1;" parent="g-N7Jogjo_735Z3HOHTk-28" vertex="1">
          <mxGeometry y="164" width="270" height="26" as="geometry" />
        </mxCell>
        <mxCell id="g-N7Jogjo_735Z3HOHTk-36" value="+&amp;nbsp;displayClear" style="text;strokeColor=none;fillColor=none;align=left;verticalAlign=top;spacingLeft=4;spacingRight=4;overflow=hidden;rotatable=0;points=[[0,0.5],[1,0.5]];portConstraint=eastwest;whiteSpace=wrap;html=1;" parent="g-N7Jogjo_735Z3HOHTk-28" vertex="1">
          <mxGeometry y="190" width="270" height="26" as="geometry" />
        </mxCell>
        <mxCell id="g-N7Jogjo_735Z3HOHTk-46" value="+&amp;nbsp;displayReport" style="text;strokeColor=none;fillColor=none;align=left;verticalAlign=top;spacingLeft=4;spacingRight=4;overflow=hidden;rotatable=0;points=[[0,0.5],[1,0.5]];portConstraint=eastwest;whiteSpace=wrap;html=1;" parent="g-N7Jogjo_735Z3HOHTk-28" vertex="1">
          <mxGeometry y="216" width="270" height="26" as="geometry" />
        </mxCell>
        <mxCell id="g-N7Jogjo_735Z3HOHTk-52" value="+&amp;nbsp;displayTop15" style="text;strokeColor=none;fillColor=none;align=left;verticalAlign=top;spacingLeft=4;spacingRight=4;overflow=hidden;rotatable=0;points=[[0,0.5],[1,0.5]];portConstraint=eastwest;whiteSpace=wrap;html=1;" parent="g-N7Jogjo_735Z3HOHTk-28" vertex="1">
          <mxGeometry y="242" width="270" height="26" as="geometry" />
        </mxCell>
        <mxCell id="g-N7Jogjo_735Z3HOHTk-53" value="+&amp;nbsp;displayTop15Adware" style="text;strokeColor=none;fillColor=none;align=left;verticalAlign=top;spacingLeft=4;spacingRight=4;overflow=hidden;rotatable=0;points=[[0,0.5],[1,0.5]];portConstraint=eastwest;whiteSpace=wrap;html=1;" parent="g-N7Jogjo_735Z3HOHTk-28" vertex="1">
          <mxGeometry y="268" width="270" height="26" as="geometry" />
        </mxCell>
        <mxCell id="g-N7Jogjo_735Z3HOHTk-47" value="+&amp;nbsp;displayTop15Scareware" style="text;strokeColor=none;fillColor=none;align=left;verticalAlign=top;spacingLeft=4;spacingRight=4;overflow=hidden;rotatable=0;points=[[0,0.5],[1,0.5]];portConstraint=eastwest;whiteSpace=wrap;html=1;" parent="g-N7Jogjo_735Z3HOHTk-28" vertex="1">
          <mxGeometry y="294" width="270" height="26" as="geometry" />
        </mxCell>
        <mxCell id="g-N7Jogjo_735Z3HOHTk-49" value="+&amp;nbsp;displayTop15SMS" style="text;strokeColor=none;fillColor=none;align=left;verticalAlign=top;spacingLeft=4;spacingRight=4;overflow=hidden;rotatable=0;points=[[0,0.5],[1,0.5]];portConstraint=eastwest;whiteSpace=wrap;html=1;" parent="g-N7Jogjo_735Z3HOHTk-28" vertex="1">
          <mxGeometry y="320" width="270" height="26" as="geometry" />
        </mxCell>
        <mxCell id="g-N7Jogjo_735Z3HOHTk-50" value="+&amp;nbsp;detailedViewOfIncidents" style="text;strokeColor=none;fillColor=none;align=left;verticalAlign=top;spacingLeft=4;spacingRight=4;overflow=hidden;rotatable=0;points=[[0,0.5],[1,0.5]];portConstraint=eastwest;whiteSpace=wrap;html=1;" parent="g-N7Jogjo_735Z3HOHTk-28" vertex="1">
          <mxGeometry y="346" width="270" height="26" as="geometry" />
        </mxCell>
        <mxCell id="g-N7Jogjo_735Z3HOHTk-51" value="+&amp;nbsp;addNewIncident" style="text;strokeColor=none;fillColor=none;align=left;verticalAlign=top;spacingLeft=4;spacingRight=4;overflow=hidden;rotatable=0;points=[[0,0.5],[1,0.5]];portConstraint=eastwest;whiteSpace=wrap;html=1;" parent="g-N7Jogjo_735Z3HOHTk-28" vertex="1">
          <mxGeometry y="372" width="270" height="26" as="geometry" />
        </mxCell>
        <mxCell id="g-N7Jogjo_735Z3HOHTk-43" value="+&amp;nbsp;searchByProtocol" style="text;strokeColor=none;fillColor=none;align=left;verticalAlign=top;spacingLeft=4;spacingRight=4;overflow=hidden;rotatable=0;points=[[0,0.5],[1,0.5]];portConstraint=eastwest;whiteSpace=wrap;html=1;" parent="g-N7Jogjo_735Z3HOHTk-28" vertex="1">
          <mxGeometry y="398" width="270" height="26" as="geometry" />
        </mxCell>
        <mxCell id="g-N7Jogjo_735Z3HOHTk-37" value="+&amp;nbsp;searchByLabel" style="text;strokeColor=none;fillColor=none;align=left;verticalAlign=top;spacingLeft=4;spacingRight=4;overflow=hidden;rotatable=0;points=[[0,0.5],[1,0.5]];portConstraint=eastwest;whiteSpace=wrap;html=1;" parent="g-N7Jogjo_735Z3HOHTk-28" vertex="1">
          <mxGeometry y="424" width="270" height="26" as="geometry" />
        </mxCell>
        <mxCell id="E8v476_gwmgkG3yzF--p-2" value="+ searchAll" style="text;strokeColor=none;fillColor=none;align=left;verticalAlign=top;spacingLeft=4;spacingRight=4;overflow=hidden;rotatable=0;points=[[0,0.5],[1,0.5]];portConstraint=eastwest;whiteSpace=wrap;html=1;" parent="g-N7Jogjo_735Z3HOHTk-28" vertex="1">
          <mxGeometry y="450" width="270" height="26" as="geometry" />
        </mxCell>
        <mxCell id="g-N7Jogjo_735Z3HOHTk-40" value="+&amp;nbsp;searchAdware" style="text;strokeColor=none;fillColor=none;align=left;verticalAlign=top;spacingLeft=4;spacingRight=4;overflow=hidden;rotatable=0;points=[[0,0.5],[1,0.5]];portConstraint=eastwest;whiteSpace=wrap;html=1;" parent="g-N7Jogjo_735Z3HOHTk-28" vertex="1">
          <mxGeometry y="476" width="270" height="26" as="geometry" />
        </mxCell>
        <mxCell id="g-N7Jogjo_735Z3HOHTk-38" value="+&amp;nbsp;searchScareware" style="text;strokeColor=none;fillColor=none;align=left;verticalAlign=top;spacingLeft=4;spacingRight=4;overflow=hidden;rotatable=0;points=[[0,0.5],[1,0.5]];portConstraint=eastwest;whiteSpace=wrap;html=1;" parent="g-N7Jogjo_735Z3HOHTk-28" vertex="1">
          <mxGeometry y="502" width="270" height="26" as="geometry" />
        </mxCell>
        <mxCell id="g-N7Jogjo_735Z3HOHTk-39" value="+&amp;nbsp;searchSMS" style="text;strokeColor=none;fillColor=none;align=left;verticalAlign=top;spacingLeft=4;spacingRight=4;overflow=hidden;rotatable=0;points=[[0,0.5],[1,0.5]];portConstraint=eastwest;whiteSpace=wrap;html=1;" parent="g-N7Jogjo_735Z3HOHTk-28" vertex="1">
          <mxGeometry y="528" width="270" height="26" as="geometry" />
        </mxCell>
        <mxCell id="g-N7Jogjo_735Z3HOHTk-42" value="+&amp;nbsp;searchBenign" style="text;strokeColor=none;fillColor=none;align=left;verticalAlign=top;spacingLeft=4;spacingRight=4;overflow=hidden;rotatable=0;points=[[0,0.5],[1,0.5]];portConstraint=eastwest;whiteSpace=wrap;html=1;" parent="g-N7Jogjo_735Z3HOHTk-28" vertex="1">
          <mxGeometry y="554" width="270" height="26" as="geometry" />
        </mxCell>
        <mxCell id="g-N7Jogjo_735Z3HOHTk-31" value="+&amp;nbsp;searchByDestinationPort" style="text;strokeColor=none;fillColor=none;align=left;verticalAlign=top;spacingLeft=4;spacingRight=4;overflow=hidden;rotatable=0;points=[[0,0.5],[1,0.5]];portConstraint=eastwest;whiteSpace=wrap;html=1;" parent="g-N7Jogjo_735Z3HOHTk-28" vertex="1">
          <mxGeometry y="580" width="270" height="36" as="geometry" />
        </mxCell>
        <mxCell id="E8v476_gwmgkG3yzF--p-6" value="" style="endArrow=block;endSize=10;endFill=0;shadow=0;strokeWidth=1;rounded=0;edgeStyle=elbowEdgeStyle;elbow=vertical;exitX=0.5;exitY=0;exitDx=0;exitDy=0;" parent="WIyWlLk6GJQsqaUBKTNV-1" source="zkfFHV4jXpPFQw0GAbJ--6" edge="1">
          <mxGeometry width="160" relative="1" as="geometry">
            <mxPoint x="-485" y="712.4300000000003" as="sourcePoint" />
            <mxPoint x="-196" y="570" as="targetPoint" />
            <Array as="points">
              <mxPoint x="-62" y="676.4300000000001" />
              <mxPoint x="-56.559999999999945" y="685.4300000000001" />
            </Array>
          </mxGeometry>
        </mxCell>
        <mxCell id="E8v476_gwmgkG3yzF--p-8" value="" style="endArrow=block;endSize=10;endFill=0;shadow=0;strokeWidth=1;rounded=0;edgeStyle=elbowEdgeStyle;elbow=vertical;entryX=0.5;entryY=1;entryDx=0;entryDy=0;exitX=0.561;exitY=0.007;exitDx=0;exitDy=0;exitPerimeter=0;" parent="WIyWlLk6GJQsqaUBKTNV-1" edge="1">
          <mxGeometry width="160" relative="1" as="geometry">
            <mxPoint x="86.64100000000008" y="1460.3100000000004" as="sourcePoint" />
            <mxPoint x="86" y="1341.4300000000003" as="targetPoint" />
            <Array as="points">
              <mxPoint x="71" y="1419" />
              <mxPoint x="-15.559999999999945" y="1121.43" />
            </Array>
          </mxGeometry>
        </mxCell>
        <mxCell id="E8v476_gwmgkG3yzF--p-9" value="" style="endArrow=block;endSize=10;endFill=0;shadow=0;strokeWidth=1;rounded=0;edgeStyle=elbowEdgeStyle;elbow=vertical;entryX=0.463;entryY=1.053;entryDx=0;entryDy=0;exitX=0.5;exitY=0;exitDx=0;exitDy=0;entryPerimeter=0;" parent="WIyWlLk6GJQsqaUBKTNV-1" source="g-N7Jogjo_735Z3HOHTk-28" target="g-N7Jogjo_735Z3HOHTk-18" edge="1">
          <mxGeometry width="160" relative="1" as="geometry">
            <mxPoint x="-164.6889999999999" y="-681.1199999999995" as="sourcePoint" />
            <mxPoint x="-165.32999999999998" y="-799.9999999999997" as="targetPoint" />
            <Array as="points">
              <mxPoint x="-180.32999999999998" y="-722.43" />
              <mxPoint x="-266.89" y="-1019.9999999999999" />
            </Array>
          </mxGeometry>
        </mxCell>
        <mxCell id="E8v476_gwmgkG3yzF--p-16" value="" style="endArrow=diamondThin;endFill=1;endSize=24;html=1;rounded=0;exitX=1;exitY=0.5;exitDx=0;exitDy=0;entryX=0.001;entryY=0.634;entryDx=0;entryDy=0;entryPerimeter=0;" parent="WIyWlLk6GJQsqaUBKTNV-1" source="5ml-Bbg17F_reLXBtUsv-68" target="gl7v_galG0PHqOLBkFwV-1" edge="1">
          <mxGeometry width="160" relative="1" as="geometry">
            <mxPoint x="403" y="-1021" as="sourcePoint" />
            <mxPoint x="583" y="-1021" as="targetPoint" />
          </mxGeometry>
        </mxCell>
        <mxCell id="E8v476_gwmgkG3yzF--p-23" value="&lt;br&gt;" style="endArrow=open;html=1;rounded=0;align=center;verticalAlign=bottom;dashed=1;endFill=0;labelBackgroundColor=none;" parent="WIyWlLk6GJQsqaUBKTNV-1" edge="1">
          <mxGeometry relative="1" as="geometry">
            <mxPoint x="589" y="-790" as="sourcePoint" />
            <mxPoint x="429" y="-790" as="targetPoint" />
          </mxGeometry>
        </mxCell>
        <mxCell id="E8v476_gwmgkG3yzF--p-24" value="" style="resizable=0;html=1;align=center;verticalAlign=top;labelBackgroundColor=none;" parent="E8v476_gwmgkG3yzF--p-23" connectable="0" vertex="1">
          <mxGeometry relative="1" as="geometry" />
        </mxCell>
        <mxCell id="E8v476_gwmgkG3yzF--p-26" value="" style="endArrow=diamondThin;endFill=0;endSize=24;html=1;rounded=0;entryX=1;entryY=0.5;entryDx=0;entryDy=0;" parent="WIyWlLk6GJQsqaUBKTNV-1" target="g-N7Jogjo_735Z3HOHTk-20" edge="1">
          <mxGeometry width="160" relative="1" as="geometry">
            <mxPoint x="139" y="-969.9971428571431" as="sourcePoint" />
            <mxPoint x="-21" y="-969.9971428571431" as="targetPoint" />
          </mxGeometry>
        </mxCell>
        <mxCell id="E8v476_gwmgkG3yzF--p-27" value="" style="endArrow=diamondThin;endFill=0;endSize=24;html=1;rounded=0;" parent="WIyWlLk6GJQsqaUBKTNV-1" edge="1">
          <mxGeometry width="160" relative="1" as="geometry">
            <mxPoint x="139" y="-559.9971428571431" as="sourcePoint" />
            <mxPoint x="-30" y="-560" as="targetPoint" />
          </mxGeometry>
        </mxCell>
        <mxCell id="E8v476_gwmgkG3yzF--p-30" style="edgeStyle=orthogonalEdgeStyle;rounded=0;orthogonalLoop=1;jettySize=auto;html=1;exitX=0;exitY=0.5;exitDx=0;exitDy=0;entryX=1.008;entryY=0.71;entryDx=0;entryDy=0;entryPerimeter=0;" parent="WIyWlLk6GJQsqaUBKTNV-1" source="g-N7Jogjo_735Z3HOHTk-46" target="g-N7Jogjo_735Z3HOHTk-8" edge="1">
          <mxGeometry relative="1" as="geometry" />
        </mxCell>
        <mxCell id="E8v476_gwmgkG3yzF--p-40" style="edgeStyle=orthogonalEdgeStyle;rounded=0;orthogonalLoop=1;jettySize=auto;html=1;exitX=1;exitY=0.5;exitDx=0;exitDy=0;entryX=1;entryY=0.5;entryDx=0;entryDy=0;endArrow=none;endFill=0;" parent="WIyWlLk6GJQsqaUBKTNV-1" source="E8v476_gwmgkG3yzF--p-2" target="zkfFHV4jXpPFQw0GAbJ--3" edge="1">
          <mxGeometry relative="1" as="geometry">
            <mxPoint x="240" y="70.00000000000023" as="targetPoint" />
            <Array as="points">
              <mxPoint x="200" y="-197" />
              <mxPoint x="200" y="151" />
            </Array>
          </mxGeometry>
        </mxCell>
        <mxCell id="E8v476_gwmgkG3yzF--p-41" style="edgeStyle=orthogonalEdgeStyle;rounded=0;orthogonalLoop=1;jettySize=auto;html=1;exitX=1;exitY=0.5;exitDx=0;exitDy=0;entryX=1;entryY=0.5;entryDx=0;entryDy=0;endArrow=none;endFill=0;" parent="WIyWlLk6GJQsqaUBKTNV-1" source="g-N7Jogjo_735Z3HOHTk-42" target="5ml-Bbg17F_reLXBtUsv-26" edge="1">
          <mxGeometry relative="1" as="geometry">
            <mxPoint x="260" y="970" as="targetPoint" />
            <Array as="points">
              <mxPoint x="240" y="-93" />
              <mxPoint x="240" y="971" />
            </Array>
          </mxGeometry>
        </mxCell>
        <mxCell id="E8v476_gwmgkG3yzF--p-43" style="edgeStyle=orthogonalEdgeStyle;rounded=0;orthogonalLoop=1;jettySize=auto;html=1;exitX=0;exitY=0.5;exitDx=0;exitDy=0;entryX=0;entryY=0.5;entryDx=0;entryDy=0;endArrow=none;endFill=0;" parent="WIyWlLk6GJQsqaUBKTNV-1" source="g-N7Jogjo_735Z3HOHTk-40" target="zkfFHV4jXpPFQw0GAbJ--8" edge="1">
          <mxGeometry relative="1" as="geometry">
            <mxPoint x="-600" y="790" as="targetPoint" />
          </mxGeometry>
        </mxCell>
        <mxCell id="E8v476_gwmgkG3yzF--p-44" style="edgeStyle=orthogonalEdgeStyle;rounded=0;orthogonalLoop=1;jettySize=auto;html=1;exitX=0;exitY=0.5;exitDx=0;exitDy=0;entryX=0;entryY=0.75;entryDx=0;entryDy=0;endArrow=none;endFill=0;" parent="WIyWlLk6GJQsqaUBKTNV-1" source="g-N7Jogjo_735Z3HOHTk-39" target="zkfFHV4jXpPFQw0GAbJ--13" edge="1">
          <mxGeometry relative="1" as="geometry">
            <mxPoint x="-710" y="920" as="targetPoint" />
            <Array as="points">
              <mxPoint x="-680" y="-119" />
              <mxPoint x="-680" y="865" />
            </Array>
          </mxGeometry>
        </mxCell>
        <mxCell id="E8v476_gwmgkG3yzF--p-42" style="edgeStyle=orthogonalEdgeStyle;rounded=0;orthogonalLoop=1;jettySize=auto;html=1;exitX=0;exitY=0.5;exitDx=0;exitDy=0;entryX=0.5;entryY=1;entryDx=0;entryDy=0;endArrow=none;endFill=0;" parent="WIyWlLk6GJQsqaUBKTNV-1" source="g-N7Jogjo_735Z3HOHTk-38" target="aVOMNLlDnLgEeCud0R0b-0" edge="1">
          <mxGeometry relative="1" as="geometry">
            <mxPoint x="-700" y="1040" as="targetPoint" />
            <Array as="points">
              <mxPoint x="-740" y="-145" />
              <mxPoint x="-740" y="980" />
              <mxPoint x="-100" y="980" />
            </Array>
          </mxGeometry>
        </mxCell>
        <mxCell id="E8v476_gwmgkG3yzF--p-47" value="1..*" style="text;html=1;strokeColor=none;fillColor=none;align=center;verticalAlign=middle;whiteSpace=wrap;rounded=0;" parent="WIyWlLk6GJQsqaUBKTNV-1" vertex="1">
          <mxGeometry x="-610" y="782.4300000000001" width="60" height="30" as="geometry" />
        </mxCell>
        <mxCell id="E8v476_gwmgkG3yzF--p-48" value="1..*" style="text;html=1;strokeColor=none;fillColor=none;align=center;verticalAlign=middle;whiteSpace=wrap;rounded=0;" parent="WIyWlLk6GJQsqaUBKTNV-1" vertex="1">
          <mxGeometry x="160" y="970" width="60" height="30" as="geometry" />
        </mxCell>
        <mxCell id="E8v476_gwmgkG3yzF--p-49" value="1..*" style="text;html=1;strokeColor=none;fillColor=none;align=center;verticalAlign=middle;whiteSpace=wrap;rounded=0;" parent="WIyWlLk6GJQsqaUBKTNV-1" vertex="1">
          <mxGeometry x="-413" y="860.43" width="60" height="30" as="geometry" />
        </mxCell>
        <mxCell id="E8v476_gwmgkG3yzF--p-50" value="1..*" style="text;html=1;strokeColor=none;fillColor=none;align=center;verticalAlign=middle;whiteSpace=wrap;rounded=0;" parent="WIyWlLk6GJQsqaUBKTNV-1" vertex="1">
          <mxGeometry x="-120" y="812.4300000000001" width="60" height="30" as="geometry" />
        </mxCell>
        <mxCell id="E8v476_gwmgkG3yzF--p-51" value="1..*" style="text;html=1;strokeColor=none;fillColor=none;align=center;verticalAlign=middle;whiteSpace=wrap;rounded=0;" parent="WIyWlLk6GJQsqaUBKTNV-1" vertex="1">
          <mxGeometry x="200" y="1570" width="60" height="30" as="geometry" />
        </mxCell>
        <mxCell id="E8v476_gwmgkG3yzF--p-56" style="edgeStyle=orthogonalEdgeStyle;rounded=0;orthogonalLoop=1;jettySize=auto;html=1;exitX=1;exitY=0.5;exitDx=0;exitDy=0;entryX=1.011;entryY=-0.106;entryDx=0;entryDy=0;entryPerimeter=0;endArrow=none;endFill=0;" parent="WIyWlLk6GJQsqaUBKTNV-1" target="5ml-Bbg17F_reLXBtUsv-53" edge="1">
          <mxGeometry relative="1" as="geometry">
            <mxPoint x="400" y="1630" as="targetPoint" />
            <mxPoint x="280" y="-190" as="sourcePoint" />
          </mxGeometry>
        </mxCell>
        <mxCell id="E8v476_gwmgkG3yzF--p-57" value="" style="endArrow=none;html=1;rounded=0;entryX=1.005;entryY=0.392;entryDx=0;entryDy=0;entryPerimeter=0;" parent="WIyWlLk6GJQsqaUBKTNV-1" target="g-N7Jogjo_735Z3HOHTk-50" edge="1">
          <mxGeometry width="50" height="50" relative="1" as="geometry">
            <mxPoint x="280" y="-190" as="sourcePoint" />
            <mxPoint x="90" y="-320" as="targetPoint" />
          </mxGeometry>
        </mxCell>
      </root>
    </mxGraphModel>
  </diagram>
</mxfile>
